<?xml version="1.0" encoding="UTF-8"?>
<svg version="1.1" xmlns="http://www.w3.org/2000/svg" width="3840" height="976">
<path d="M0 0 C1267.2 0 2534.4 0 3840 0 C3840 322.08 3840 644.16 3840 976 C2572.8 976 1305.6 976 0 976 C0 653.92 0 331.84 0 0 Z " fill="#FEFEFE" transform="translate(0,0)"/>
<path d="M0 0 C0.67482422 0.54930176 1.34964844 1.09860352 2.04492188 1.66455078 C6.94329719 5.68089229 11.6753798 9.83164469 16.3125 14.1484375 C18.42756789 16.09354458 20.57103275 17.97904434 22.74609375 19.85546875 C27.00485328 23.5697704 31.01696401 27.49378436 35 31.5 C35.66837891 32.16451172 36.33675781 32.82902344 37.02539062 33.51367188 C41.53496791 38.03201413 45.77564265 42.72425456 49.9375 47.5625 C50.86323352 48.6105688 51.79023572 49.65751895 52.71875 50.703125 C72.41674843 73.11337522 89.32769 98.06925046 103.6484375 124.21484375 C104.82153923 126.35131085 106.01681179 128.47342942 107.21875 130.59375 C134.63281881 179.71216479 150.03899844 237.64943935 153.9375 293.5625 C154.01991943 294.59624756 154.01991943 294.59624756 154.10400391 295.65087891 C162.73401242 404.48063229 126.29376568 514.47039009 55.9375 597.5625 C53.73752275 600.05556023 51.51685268 602.52646478 49.2734375 604.98046875 C47.99161249 606.39733553 46.71636287 607.82065926 45.47338867 609.27172852 C40.41811298 615.16421209 34.999814 620.64863937 29.5 626.125 C28.59701172 627.03185547 27.69402344 627.93871094 26.76367188 628.87304688 C21.6500447 633.97926836 16.43981488 638.87933931 10.9375 643.5625 C9.96167969 644.41972656 8.98585938 645.27695312 7.98046875 646.16015625 C-57.08778694 702.32714578 -139.7773888 735.73178231 -225.0625 743.5625 C-226.09898682 743.65893799 -227.13547363 743.75537598 -228.20336914 743.85473633 C-238.75550231 744.72612728 -249.29435048 744.76344326 -259.875 744.75 C-260.82880554 744.74906342 -261.78261108 744.74812683 -262.76531982 744.74716187 C-277.61477528 744.71561225 -292.31092902 744.41183554 -307.0625 742.5625 C-308.8870874 742.33651123 -308.8870874 742.33651123 -310.74853516 742.10595703 C-353.10903437 736.66654915 -394.31883436 725.72061397 -433.0625 707.5625 C-434.83678 706.75419875 -436.61152277 705.94691259 -438.38671875 705.140625 C-475.32039931 688.17283769 -509.67055727 664.79081322 -539.37109375 637.0703125 C-541.90067657 634.71328468 -544.47258847 632.41528626 -547.0625 630.125 C-554.82660053 623.14856184 -562.36339532 615.80252937 -569.12109375 607.83984375 C-570.67481955 606.01726399 -572.25079953 604.22575461 -573.84765625 602.44140625 C-627.86613623 541.7210694 -661.3835647 464.63722825 -673.0625 384.5625 C-673.22766113 383.48129883 -673.39282227 382.40009766 -673.56298828 381.28613281 C-678.95746952 344.54564321 -678.77546973 304.24926886 -673.0625 267.5625 C-672.88557617 266.40234375 -672.70865234 265.2421875 -672.52636719 264.046875 C-659.35862027 179.99162004 -622.42065475 102.39887824 -564.47607422 40.09375 C-563.02469448 38.52154729 -561.59095331 36.93469307 -560.16015625 35.34375 C-553.18332657 27.61783884 -545.84213153 20.47551727 -538.0625 13.5625 C-537.48129395 13.04187988 -536.90008789 12.52125977 -536.30126953 11.98486328 C-526.60632109 3.32235705 -516.51501479 -4.70995053 -506.0625 -12.4375 C-505.40088867 -12.93072754 -504.73927734 -13.42395508 -504.05761719 -13.93212891 C-484.37330085 -28.53206141 -462.95672512 -40.50508719 -441.0625 -51.4375 C-439.95914307 -51.9951001 -439.95914307 -51.9951001 -438.83349609 -52.56396484 C-394.206529 -74.99840293 -343.75452646 -87.54420025 -294.0625 -91.4375 C-293.39234863 -91.49389648 -292.72219727 -91.55029297 -292.03173828 -91.60839844 C-189.58901527 -99.94589913 -86.57269453 -67.7061072 0 0 Z " fill="#00AED6" transform="translate(676.0625,161.4375)"/>
<path d="M0 0 C22.43202439 -0.62997864 44.5033789 1.93945632 66.09863281 8.08691406 C66.85515137 8.30186523 67.61166992 8.51681641 68.39111328 8.73828125 C98.93144244 17.66617297 123.85665029 33.88526196 148.09863281 54.08691406 C148.42863281 39.23691406 148.75863281 24.38691406 149.09863281 9.08691406 C190.34863281 9.08691406 231.59863281 9.08691406 274.09863281 9.08691406 C274.19787708 98.42508098 274.19787708 98.42508098 274.22566223 142.78173828 C274.2260764 143.44241129 274.22649057 144.10308431 274.2269173 144.78377771 C274.2358982 159.14558326 274.24420843 173.50738913 274.2518288 187.86919546 C274.25557047 194.91328533 274.25946018 201.9573751 274.26342773 209.00146484 C274.26382001 209.70239753 274.26421229 210.40333023 274.26461645 211.1255033 C274.2773767 233.8021129 274.29989275 256.47869992 274.32752447 279.15529586 C274.3566987 303.14161918 274.37463663 327.12792775 274.3808983 351.1142683 C274.38500375 365.46783099 274.39794565 379.8213288 274.42238221 394.1748715 C274.43830491 404.03287235 274.44301845 413.89083992 274.43913694 423.74885267 C274.43722553 429.42666742 274.44004528 435.10436923 274.45624924 440.78216362 C274.5769341 485.26473671 274.5769341 485.26473671 271.09863281 504.08691406 C270.91203222 505.10722843 270.91203222 505.10722843 270.72166193 506.14815521 C270.04815489 509.74650146 269.25794092 513.29098768 268.34863281 516.83691406 C268.09114258 517.86655273 267.83365234 518.89619141 267.56835938 519.95703125 C259.36776685 551.82415969 244.68907049 580.24703393 223.09863281 605.08691406 C222.62039063 605.63959961 222.14214844 606.19228516 221.64941406 606.76171875 C205.45859515 625.32220234 186.37182905 639.84006351 165.09863281 652.08691406 C164.18428467 652.62541992 164.18428467 652.62541992 163.25146484 653.17480469 C130.77781078 672.2095159 92.24724476 681.36915842 55.09863281 685.08691406 C54.15834229 685.18262695 53.21805176 685.27833984 52.24926758 685.37695312 C40.82819216 686.3634031 29.37283904 686.30861061 17.91723633 686.32714844 C14.33227759 686.33678996 10.74790933 686.36786663 7.16308594 686.39941406 C-12.68723908 686.49069033 -32.2645997 684.86334773 -51.71386719 680.77441406 C-53.25046997 680.45802979 -53.25046997 680.45802979 -54.81811523 680.13525391 C-64.7065561 678.03093843 -74.30401709 675.24360216 -83.90136719 672.08691406 C-84.68721191 671.83748047 -85.47305664 671.58804688 -86.28271484 671.33105469 C-137.45766174 655.05049501 -191.45507483 620.63582823 -222.90136719 576.08691406 C-221.59041224 573.13379468 -220.26726439 571.25926797 -217.81152344 569.16894531 C-217.19776855 568.64155762 -216.58401367 568.11416992 -215.95166016 567.57080078 C-215.29568848 567.01924316 -214.6397168 566.46768555 -213.96386719 565.89941406 C-213.28727051 565.3220752 -212.61067383 564.74473633 -211.91357422 564.14990234 C-207.20744229 560.14774092 -202.44385467 556.21777188 -197.64355469 552.32910156 C-194.53136678 549.78437811 -191.46406845 547.19077025 -188.40136719 544.58691406 C-184.45490595 541.23239311 -180.48494484 537.91469445 -176.46386719 534.64941406 C-172.21744336 531.19417255 -168.04840425 527.65993572 -163.90136719 524.08691406 C-158.89907726 519.77702004 -153.84467693 515.54690738 -148.70605469 511.39941406 C-146.59410597 509.65808587 -144.52615494 507.89384843 -142.47167969 506.08691406 C-141.88845947 505.57845947 -141.30523926 505.07000488 -140.7043457 504.54614258 C-139.56746912 503.552153 -138.43738633 502.55032401 -137.31518555 501.53979492 C-134.15481813 498.7893146 -133.26350682 498.08691406 -128.90136719 498.08691406 C-127.18261719 500.03613281 -127.18261719 500.03613281 -125.40136719 502.77441406 C-122.16684513 507.45993667 -118.72457288 511.67670127 -114.83886719 515.83691406 C-114.35675781 516.35471436 -113.87464844 516.87251465 -113.37792969 517.40600586 C-111.89817843 518.97874014 -110.4027852 520.53486241 -108.90136719 522.08691406 C-108.35899414 522.65482666 -107.81662109 523.22273926 -107.2578125 523.80786133 C-103.05186401 528.13024366 -98.585985 531.89194068 -93.77636719 535.52441406 C-93.03136963 536.08862061 -92.28637207 536.65282715 -91.51879883 537.23413086 C-50.41173664 567.99502711 -0.32092986 577.92598486 50.09863281 571.08691406 C80.28192279 566.15701778 109.04877832 551.44696191 128.09863281 527.08691406 C140.90135176 509.2287625 148.0376512 489.46023542 148.41503906 467.43847656 C148.43582016 466.42594818 148.45660126 465.4134198 148.47801208 464.37020874 C148.54314879 461.15084308 148.60222513 457.93139913 148.66113281 454.71191406 C148.70435218 452.52310404 148.74796754 450.33430179 148.79199219 448.14550781 C148.8987932 442.79272486 149.00062481 437.43986484 149.09863281 432.08691406 C147.82527516 433.20108875 146.55191941 434.3152656 145.27856445 435.42944336 C144.21491417 436.36012886 144.21491417 436.36012886 143.129776 437.30961609 C141.49302336 438.74181308 139.85636068 440.17411288 138.21972656 441.60644531 C108.80257509 466.74162423 72.39878287 482.19528434 34.09863281 487.08691406 C33.34622314 487.18335205 32.59381348 487.27979004 31.81860352 487.37915039 C22.33999216 488.41329792 12.80853245 488.28596453 3.28613281 488.27441406 C1.91344742 488.27350769 1.91344742 488.27350769 0.51303101 488.27258301 C-13.04214427 488.24825522 -26.46450957 488.04926752 -39.90136719 486.08691406 C-40.76536133 485.9633252 -41.62935547 485.83973633 -42.51953125 485.71240234 C-101.91273362 476.85815732 -158.77234958 445.75708133 -195.90136719 398.08691406 C-197.04798828 396.683125 -197.04798828 396.683125 -198.21777344 395.25097656 C-209.73924117 380.86301205 -219.23458064 364.83126839 -226.90136719 348.08691406 C-227.26182129 347.31476563 -227.62227539 346.54261719 -227.99365234 345.74707031 C-254.03108728 289.5674493 -257.47764453 222.50026694 -236.81445312 164.01025391 C-226.7418648 136.81258527 -213.62661834 111.35089381 -194.90136719 89.08691406 C-194.10980225 88.14307861 -194.10980225 88.14307861 -193.30224609 87.18017578 C-184.46174633 76.69360352 -175.44193031 66.90844655 -164.69433594 58.32519531 C-162.90449371 56.89081825 -161.13401012 55.43173672 -159.38964844 53.94238281 C-114.17138851 15.51032422 -58.00135071 1.7375026 0 0 Z " fill="#000000" transform="translate(1284.9013671875,197.9130859375)"/>
<path d="M0 0 C0.70464386 0.00093658 1.40928772 0.00187317 2.13528442 0.00283813 C65.91322396 0.18576886 126.53149066 23.89255772 172.625 68.1875 C173.21958008 68.75484863 173.81416016 69.32219727 174.42675781 69.90673828 C183.32430679 78.43948316 191.32244094 87.25826231 198.625 97.1875 C199.26429443 98.04359863 199.26429443 98.04359863 199.91650391 98.91699219 C210.0332931 112.49025533 218.46452609 126.8537553 225.625 142.1875 C225.99125488 142.96834961 226.35750977 143.74919922 226.73486328 144.55371094 C254.0186012 203.45304785 255.26606084 271.68611922 233.5 332.5 C218.11429903 373.635077 191.49402353 412.15532671 156.625 439.1875 C155.18833984 440.34958984 155.18833984 440.34958984 153.72265625 441.53515625 C115.79226179 471.71684465 65.69277105 492.14649851 16.859375 492.390625 C15.9452887 492.39632507 15.03120239 492.40202515 14.0894165 492.40789795 C12.15988296 492.4172927 10.23033377 492.42385977 8.30078125 492.42773438 C5.42417298 492.43733587 2.54831305 492.46836907 -0.328125 492.5 C-17.29544069 492.59784863 -33.86466394 490.78904338 -50.3125 486.5 C-51.29992188 486.24653809 -52.28734375 485.99307617 -53.3046875 485.73193359 C-69.78049817 481.35849786 -85.39987099 475.30849436 -100.375 467.1875 C-101.02098145 466.84638184 -101.66696289 466.50526367 -102.33251953 466.15380859 C-114.78568651 459.57321556 -126.12075922 451.62818058 -137.375 443.1875 C-137.375 520.4075 -137.375 597.6275 -137.375 677.1875 C-180.275 677.1875 -223.175 677.1875 -267.375 677.1875 C-267.375 458.0675 -267.375 238.9475 -267.375 13.1875 C-226.125 13.1875 -184.875 13.1875 -142.375 13.1875 C-141.88 33.4825 -141.88 33.4825 -141.375 54.1875 C-137.085 50.5575 -132.795 46.9275 -128.375 43.1875 C-125.66246596 41.10261957 -122.98643686 39.07734044 -120.1875 37.125 C-119.47883789 36.6302417 -118.77017578 36.1354834 -118.04003906 35.62573242 C-83.13830135 11.7026375 -42.14389932 -0.07265654 0 0 Z " fill="#000000" transform="translate(2478.375,193.8125)"/>
<path d="M0 0 C3.07269599 0.02368119 6.14451998 0.02050993 9.21728516 0.01391602 C27.36477006 0.03897065 45.67513638 0.90524914 63.57275391 4.08618164 C64.54801025 4.25609619 65.5232666 4.42601074 66.52807617 4.60107422 C108.68480203 12.22756927 148.88563302 28.58319805 182.57275391 55.33618164 C183.44544922 56.01680664 184.31814453 56.69743164 185.21728516 57.39868164 C235.18292725 97.19562058 266.82008038 154.96378651 274.01025391 218.40649414 C280.40439973 281.52765077 264.57365218 346.38759939 224.57275391 396.33618164 C223.82638672 397.2862207 223.08001953 398.23625977 222.31103516 399.21508789 C208.73458963 415.9032462 193.19903132 431.00154039 175.57275391 443.33618164 C174.89809082 443.823125 174.22342773 444.31006836 173.52832031 444.81176758 C126.71444787 478.54969697 70.51127451 492.28282309 13.57275391 493.33618164 C12.35249512 493.36341309 11.13223633 493.39064453 9.875 493.41870117 C-49.85648247 494.62226291 -107.68692981 478.47918586 -154.42724609 440.33618164 C-155.42240234 439.54469727 -156.41755859 438.75321289 -157.44287109 437.93774414 C-171.82640049 426.30521276 -185.34631848 412.96708156 -196.22851562 397.98364258 C-197.44076859 396.31759716 -198.67984972 394.67431449 -199.92333984 393.03149414 C-229.86221054 352.94197614 -245.82297523 303.11871195 -247.42724609 253.33618164 C-247.46849609 252.25208008 -247.50974609 251.16797852 -247.55224609 250.05102539 C-248.7435773 188.77192639 -225.81430861 130.56466988 -186.79101562 83.9909668 C-185.54841751 82.4832099 -184.3577435 80.93303872 -183.17333984 79.37915039 C-182.59712891 78.7049707 -182.02091797 78.03079102 -181.42724609 77.33618164 C-180.76724609 77.33618164 -180.10724609 77.33618164 -179.42724609 77.33618164 C-179.16113525 76.74248779 -178.89502441 76.14879395 -178.62084961 75.53710938 C-177.39740887 73.28116373 -176.18110286 71.8825332 -174.32958984 70.12133789 C-173.70173584 69.52409912 -173.07388184 68.92686035 -172.42700195 68.31152344 C-171.4061853 67.36466675 -171.4061853 67.36466675 -170.36474609 66.39868164 C-169.65519775 65.73843994 -168.94564941 65.07819824 -168.21459961 64.39794922 C-160.68559206 57.50014564 -152.71385183 51.29230443 -144.42724609 45.33618164 C-143.8159082 44.89467773 -143.20457031 44.45317383 -142.57470703 43.99829102 C-100.96431956 14.27984642 -50.89121814 -0.41661067 0 0 Z " fill="#000000" transform="translate(1870.42724609375,193.663818359375)"/>
<path d="M0 0 C2.48052403 0.37238006 4.96393897 0.72614798 7.45019531 1.05810547 C13.71085049 1.92041873 19.22509162 3.04603402 24.94189453 5.76049805 C25.61365723 6.06874512 26.28541992 6.37699219 26.97753906 6.69458008 C47.37604016 16.28670335 63.3140452 32.25517106 71.69189453 53.32299805 C74.23355513 60.4601864 75.92236555 66.743887 75.85986328 74.34643555 C75.85365967 75.32789551 75.84745605 76.30935547 75.84106445 77.32055664 C75.83308838 78.0638623 75.8251123 78.80716797 75.81689453 79.57299805 C75.25073646 79.57321541 74.68457838 79.57343278 74.101264 79.57365674 C40.54023278 79.58717491 6.97934007 79.62666734 -26.58161354 79.69985367 C-30.61202582 79.70862034 -34.64243853 79.71717016 -38.67285156 79.72558594 C-39.8764169 79.72810453 -39.8764169 79.72810453 -41.10429668 79.73067401 C-54.0933836 79.75733809 -67.08242638 79.76643866 -80.07153785 79.76903947 C-93.40126446 79.77209978 -106.73086355 79.79405537 -120.06053257 79.83352262 C-128.28457917 79.85727817 -136.50837115 79.86632513 -144.73244733 79.85651115 C-150.37331861 79.85119217 -156.01396191 79.86424009 -161.65476829 79.89166095 C-164.90853203 79.9069378 -168.16168234 79.91145896 -171.41547585 79.89959526 C-174.9470965 79.88799295 -178.47728013 79.90706491 -182.00878906 79.9337616 C-183.5438326 79.91775171 -183.5438326 79.91775171 -185.10988712 79.90141839 C-191.70900461 79.99447894 -196.07268082 81.31649151 -201.18310547 85.57299805 C-204.4466045 89.08125951 -205.45351594 91.76293672 -205.68310547 96.44799805 C-205.45364881 101.36281164 -204.47078057 105.7991755 -201.18310547 109.57299805 C-195.09333904 113.96740213 -190.15247116 114.13587873 -182.77682495 114.05833435 C-181.06273616 114.06429448 -181.06273616 114.06429448 -179.31401932 114.07037503 C-175.48742534 114.07896137 -171.66150662 114.05913675 -167.83496094 114.03955078 C-165.08970414 114.03784965 -162.3444658 114.04226061 -159.59921265 114.04653931 C-153.68595489 114.05280466 -147.77285054 114.04505181 -141.85961533 114.02828789 C-133.28727325 114.00444803 -124.71509546 114.0074819 -116.14273407 114.01791633 C-102.20354292 114.03462018 -88.26439219 114.03718879 -74.32519531 114.02734375 C-73.49130898 114.02676081 -72.65742264 114.02617786 -71.79826702 114.02557725 C-62.51268507 114.01886121 -53.22710666 114.00980181 -43.94152832 113.99926758 C-40.58308927 113.9955281 -37.22465015 113.99186838 -33.86621094 113.98828125 C-33.03759072 113.98739034 -32.20897049 113.98649942 -31.35524057 113.98558151 C-17.48398687 113.97123507 -3.61281118 113.97648486 10.25843513 113.99620396 C18.79542847 114.00746821 27.3320809 114.00191516 35.86903749 113.97392512 C41.73602495 113.95588458 47.60284077 113.95600038 53.46983911 113.96971374 C56.84284251 113.97698905 60.21491022 113.97369924 63.58792114 113.95342827 C95.72460895 113.77100072 123.32220195 120.56316738 146.90283203 143.51049805 C165.34548082 162.36024209 173.96091392 186.56805161 173.98486328 212.6159668 C173.98819168 213.89361404 173.99152008 215.17126129 173.99494934 216.48762512 C174.0009265 219.20009195 174.00279155 221.91252706 174.00219727 224.625 C174.00211723 227.34447053 174.00886002 230.06376821 174.02270508 232.78320312 C174.11083371 251.47448482 173.4412152 269.95220239 171.81689453 288.57299805 C171.716539 289.74855759 171.61618347 290.92411713 171.51278687 292.13529968 C170.21818142 307.17271392 168.28371894 322.07160435 165.94857788 336.97994995 C165.65749636 338.84305165 165.37120666 340.70690976 165.09024048 342.57156372 C160.59111147 372.18615604 148.91459484 399.05464354 124.79345703 417.94018555 C108.06773701 429.96812464 90.24434165 436.60990009 69.87939453 438.82299805 C68.54134273 438.98311515 67.20345068 439.144573 65.86572266 439.30737305 C57.66536832 440.27940344 49.48533716 440.89740102 41.24047852 441.31811523 C38.32175008 441.535412 35.67576683 441.99988818 32.81689453 442.57299805 C30.33641711 442.77464295 27.8526032 442.93674598 25.36767578 443.07299805 C24.63735641 443.11360352 23.90703705 443.15420898 23.15458679 443.19604492 C21.59883856 443.28175029 20.04299233 443.36569233 18.48706055 443.44799805 C16.20937968 443.56875735 13.93208794 443.69533145 11.65478516 443.82299805 C-11.24800956 445.08462916 -34.11971391 445.77767436 -57.05810547 445.76049805 C-58.94384277 445.76058868 -58.94384277 445.76058868 -60.86767578 445.76068115 C-103.81664339 445.73167252 -146.85077393 444.41044256 -189.47705078 438.91235352 C-191.89546792 438.60906952 -194.31411365 438.33406004 -196.73779297 438.0769043 C-221.3104679 435.42774036 -243.2719707 426.77384136 -262.18310547 410.57299805 C-262.99392578 409.9078418 -263.80474609 409.24268555 -264.64013672 408.55737305 C-297.05463493 380.99228795 -303.51647422 339.93488264 -306.80810547 299.82299805 C-307.17505261 295.19580552 -307.52029584 290.56712267 -307.85839844 285.93774414 C-308.14955496 281.96615149 -308.47925168 277.99836413 -308.81201172 274.0300293 C-311.60872993 238.44444523 -311.12118288 202.20039822 -309.18310547 166.57299805 C-309.10237793 165.04884277 -309.10237793 165.04884277 -309.02001953 163.49389648 C-306.25303524 114.61050739 -302.92081639 63.98092654 -265.96044922 28.0456543 C-256.11177805 19.27742807 -245.17316095 12.94999774 -233.18310547 7.57299805 C-232.15830078 7.08959961 -231.13349609 6.60620117 -230.07763672 6.1081543 C-218.50182176 1.28123019 -205.78776779 0.4704436 -193.44384766 -1.02905273 C-189.5804941 -1.50054617 -185.72628353 -2.02174346 -181.87060547 -2.55200195 C-180.74267578 -2.69895508 -179.61474609 -2.8459082 -178.45263672 -2.99731445 C-176.21901638 -3.29086073 -173.98725413 -3.59881184 -171.75732422 -3.91918945 C-167.57145833 -4.49380673 -163.38492018 -4.9858447 -159.18310547 -5.42700195 C-158.30267578 -5.52013672 -157.42224609 -5.61327148 -156.51513672 -5.70922852 C-104.61282489 -10.87494444 -51.47077764 -7.82337191 0 0 Z " fill="#FEFEFE" transform="translate(483.18310546875,268.427001953125)"/>
<path d="M0 0 C0.969375 0.48984375 1.93875 0.9796875 2.9375 1.484375 C16.29372745 8.39544618 27.88369792 17.97367538 39 28 C39.74894531 28.67546875 40.49789062 29.3509375 41.26953125 30.046875 C63.46929464 51.20673094 77.49718023 80.55275199 84.25 110.125 C84.40106201 110.77960205 84.55212402 111.4342041 84.70776367 112.10864258 C85.19734498 114.3980496 85.60132658 116.69285601 86 119 C86.16943556 119.95530861 86.33887112 120.91061722 86.51344109 121.89487457 C88.59387892 135.69072155 88.27171866 149.5716508 88.23213124 163.48809171 C88.22340727 167.34197013 88.22642316 171.19584286 88.22793579 175.04972839 C88.22897904 181.70930095 88.22276138 188.36883399 88.21146011 195.02839661 C88.19513159 204.65672614 88.18998963 214.28503678 88.18748413 223.91337866 C88.1831185 239.53878016 88.16984028 255.16416066 88.15087891 270.78955078 C88.13249069 285.95849503 88.11834862 301.12743356 88.10986328 316.29638672 C88.10933783 317.23308675 88.10881239 318.16978678 88.10827102 319.13487166 C88.10566074 323.83452392 88.10313337 328.53417622 88.10064721 333.23382854 C88.07995 372.15590436 88.04309938 411.07794128 88 450 C49.39 450 10.78 450 -29 450 C-29.33 433.5 -29.66 417 -30 400 C-33.465 403.96 -33.465 403.96 -37 408 C-50.69499377 422.48508957 -67.38436646 433.83686077 -85 443 C-85.66870117 443.34804688 -86.33740234 443.69609375 -87.02636719 444.0546875 C-104.38261359 452.94589895 -122.7931016 458.74940621 -142 462 C-142.67353516 462.11714355 -143.34707031 462.23428711 -144.04101562 462.35498047 C-157.92645253 464.66578636 -171.97245315 464.26026274 -186 464 C-186.99338379 463.98598145 -187.98676758 463.97196289 -189.01025391 463.95751953 C-241.88609331 463.07972449 -289.98780612 447.64047142 -327.39453125 409.5625 C-351.72562879 383.7770396 -360.00644977 349.61270256 -359.13623047 315.07958984 C-358.21154053 294.17629425 -353.20020929 275.22222263 -343 257 C-342.16662109 255.50339844 -342.16662109 255.50339844 -341.31640625 253.9765625 C-336.8088295 246.43150598 -331.065417 240.29207682 -325 234 C-324.41605469 233.35289062 -323.83210938 232.70578125 -323.23046875 232.0390625 C-282.45909657 188.06791174 -207.20039605 179.24233436 -151.375 171 C-132.77270654 168.25257191 -114.28781934 165.44565774 -96 161 C-95.02853027 160.76603516 -94.05706055 160.53207031 -93.05615234 160.29101562 C-78.87735425 156.79126157 -60.4404112 152.07378906 -51 140 C-46.51857901 132.50520973 -45.93268126 124.87466349 -47.47265625 116.3984375 C-50.46793668 104.81190363 -57.98447578 96.26069084 -68.09375 90.12109375 C-87.24556718 79.95218165 -107.63089518 77.71011179 -129 77 C-130.30324219 76.94585937 -131.60648438 76.89171875 -132.94921875 76.8359375 C-160.48567017 76.18101649 -187.51624596 85.45641939 -208 104 C-209.546875 105.175625 -209.546875 105.175625 -211.125 106.375 C-226.87128144 120.75203958 -235.81409231 139.98676924 -242 160 C-249.89328228 158.73611434 -257.72737109 157.29664738 -265.55175781 155.66162109 C-266.63615646 155.43699692 -267.72055511 155.21237274 -268.83781433 154.98094177 C-272.37671472 154.24732063 -275.91492112 153.51040983 -279.453125 152.7734375 C-281.92457915 152.26042584 -284.39607642 151.74762186 -286.86761475 151.23501587 C-292.67933532 150.02912585 -298.49062228 148.82116185 -304.30169654 147.61216223 C-310.92540327 146.23421675 -317.54966887 144.85896738 -324.17397928 143.48392749 C-337.78327022 140.65891959 -351.39186718 137.83058091 -365 135 C-359.77223168 91.95296136 -332.41005413 52.44595314 -299 26 C-298.02289062 25.2059375 -297.04578125 24.411875 -296.0390625 23.59375 C-287.18847388 16.54894898 -277.78900893 10.65313674 -268 5 C-266.9797876 4.40638672 -266.9797876 4.40638672 -265.93896484 3.80078125 C-233.53957192 -14.83582661 -196.05896485 -24.68703641 -159 -28 C-157.32550781 -28.16628906 -157.32550781 -28.16628906 -155.6171875 -28.3359375 C-102.79188952 -32.78818357 -47.08746773 -25.01521723 0 0 Z " fill="#000000" transform="translate(3130,223)"/>
<path d="M0 0 C47.19 0 94.38 0 143 0 C148.13563488 10.27126975 153.20793769 20.53598624 158.0625 30.9375 C158.37848145 31.61264648 158.69446289 32.28779297 159.02001953 32.98339844 C164.24126509 44.14105768 169.35811204 55.34439699 174.43557739 66.56808472 C179.34588687 77.4196018 184.36163006 88.2172844 189.43850708 98.99176025 C194.19051287 109.08160382 198.84347886 119.21232254 203.4375 129.375 C208.85050119 141.34878536 214.3902028 153.2566758 220.00997925 165.13470459 C225.25543088 176.22702751 230.37518623 187.37067284 235.42724609 198.55224609 C240.18748843 209.0818721 245.05829671 219.55439056 250 230 C256.96166272 244.71879897 263.74176669 259.5143927 270.44319153 274.35328674 C272.33421548 278.53789004 274.24179873 282.71454988 276.16015625 286.88671875 C276.87099365 288.43601074 276.87099365 288.43601074 277.59619141 290.01660156 C278.46409544 291.90659134 279.33468684 293.79535034 280.20849609 295.68261719 C280.76851318 296.90513184 280.76851318 296.90513184 281.33984375 298.15234375 C281.82505493 299.2040979 281.82505493 299.2040979 282.32006836 300.27709961 C283 302 283 302 283 304 C283.66 304 284.32 304 285 304 C285.17106262 303.45110107 285.34212524 302.90220215 285.51837158 302.33666992 C287.29763302 296.79555408 289.43625088 291.57009622 291.921875 286.3125 C292.29847763 285.50515411 292.67508026 284.69780823 293.06309509 283.86599731 C293.86926779 282.13887458 294.67758587 280.41275188 295.48788452 278.68756104 C297.64909631 274.08545553 299.793957 269.47572652 301.94140625 264.8671875 C302.3739119 263.94018036 302.80641754 263.01317322 303.25202942 262.05807495 C307.11589359 253.77045496 310.91536127 245.45469228 314.6875 237.125 C315.89960056 234.45045782 317.11192555 231.77601737 318.32421875 229.1015625 C318.77294846 228.11129059 318.77294846 228.11129059 319.23074341 227.10101318 C322.80132124 219.22524847 326.4014412 211.3630076 330 203.5 C335.18253957 192.17384142 340.35003426 180.84100637 345.5 169.5 C352.63440797 153.79008853 359.8055492 138.09710511 366.98388672 122.40722656 C368.99135243 118.01924242 370.99779294 113.63079008 373.00390625 109.2421875 C373.33370483 108.52071533 373.66350342 107.79924316 374.0032959 107.0559082 C375.00221459 104.87061339 376.00111163 102.68530868 377 100.5 C380.67423469 92.46172747 384.34848558 84.42346327 388.02552795 76.38647461 C389.70476488 72.7160957 391.38368742 69.04557303 393.0625 65.375 C393.55543045 64.29732361 393.55543045 64.29732361 394.05831909 63.19787598 C397.7463842 55.13365783 401.42738804 47.06629855 405.09375 38.9921875 C405.4289415 38.25410858 405.764133 37.51602966 406.10948181 36.75558472 C407.95204473 32.69762628 409.79313179 28.63900524 411.63160706 24.57919312 C415.36712829 16.35810806 419.18048799 8.18466859 423 0 C470.52 0 518.04 0 567 0 C565.43453555 4.69639334 563.68343201 8.95570992 561.5078125 13.36328125 C561.16607498 14.06338821 560.82433746 14.76349518 560.47224426 15.4848175 C559.35978857 17.76233835 558.24233582 20.03736997 557.125 22.3125 C555.95541608 24.70474279 554.7872085 27.09765449 553.61906433 29.49060059 C552.83938476 31.08756723 552.05928444 32.68432853 551.27876282 34.28088379 C548.13442094 40.71436532 545.0264976 47.16475861 541.9375 53.625 C537.3227035 63.26517062 532.6674083 72.88523459 528 82.5 C523.31233315 92.15669537 518.6368122 101.81874376 514 111.5 C509.01961814 121.89859948 503.99306434 132.27436932 498.95797729 142.64654541 C494.63827771 151.54596705 490.33441039 160.45250572 486.0625 169.375 C481.24548637 179.43484062 476.37806764 189.46967759 471.5 199.5 C466.09731297 210.60944965 460.71577459 221.72834247 455.37792969 232.86914062 C451.68071735 240.58528057 447.96996802 248.29480528 444.25 256 C443.9613205 256.59798401 443.67264099 257.19596802 443.37521362 257.81207275 C438.21227689 268.50489727 433.02975013 279.18818897 427.8458252 289.87084961 C423.06451834 299.72513843 418.3089457 309.59131214 413.57763672 319.46972656 C409.41194654 328.1595663 405.2082469 336.83072009 401 345.5 C395.78623997 356.24114811 390.59302126 366.99163664 385.43310547 377.75878906 C380.20025681 388.67598933 374.9339153 399.57697206 369.66729736 410.47790527 C367.63097464 414.69293341 365.59632271 418.90876479 363.5625 423.125 C357.00622156 436.71519127 350.43287275 450.29691458 343.84527588 463.87194824 C339.06415463 473.7258719 334.30876877 483.59168155 329.57763672 493.46972656 C325.06845717 502.87610245 320.51428614 512.26043868 315.95898438 521.64453125 C311.61874159 530.5865757 307.29356409 539.53541564 303 548.5 C298.01994209 558.89792311 292.993629 569.27297441 287.95898438 579.64453125 C283.61874122 588.58657647 279.29370016 597.53548025 275 606.5 C270.58320368 615.71862705 266.14215179 624.92531392 261.68505859 634.12451172 C260.99079309 635.55749363 260.29677334 636.99059464 259.60302734 638.42382812 C258.62418793 640.44570885 257.64427688 642.46706681 256.6640625 644.48828125 C256.10154785 645.64884033 255.5390332 646.80939941 254.95947266 648.00512695 C252.33691284 653.35186832 249.66328606 658.67342788 247 664 C199.81 664 152.62 664 104 664 C105.5612952 659.31611441 107.30188392 655.14407477 109.52734375 650.78515625 C109.87154358 650.10232071 110.21574341 649.41948517 110.57037354 648.71595764 C111.30668671 647.25570639 112.04470045 645.79631159 112.78427124 644.33770752 C114.74565827 640.46808279 116.69334679 636.59158297 118.640625 632.71484375 C119.02586838 631.94829468 119.41111176 631.18174561 119.80802917 630.39196777 C122.67731379 624.67143098 125.46183914 618.91540724 128.1875 613.125 C134.47653291 599.79851024 141.14430042 586.657752 147.77026367 573.49658203 C152.42974969 564.22799238 157.01510979 554.9319394 161.46875 545.5625 C167.44530564 532.99051933 173.68723893 520.55734813 179.94775391 508.125 C181.39407326 505.25091011 182.83831373 502.37578978 184.28125 499.5 C184.75379211 498.5590448 185.22633423 497.6180896 185.7131958 496.64862061 C189.16118891 489.75307639 192.47602883 482.80033162 195.765625 475.828125 C198.6213314 469.7772596 201.52163201 463.88042164 205.015625 458.171875 C210.975778 448.96136492 210.975778 448.96136492 212.81396484 438.47021484 C211.33785564 433.2479597 208.48544748 428.87759618 205.50976562 424.38720703 C202.99457362 420.4102427 201.14278108 416.14672135 199.1875 411.875 C198.26239259 409.93010648 197.33235635 407.98755274 196.3984375 406.046875 C195.87475586 404.95826172 195.35107422 403.86964844 194.81152344 402.74804688 C190.13750403 393.06356802 185.40422634 383.40764325 180.68505859 373.74511719 C175.37843519 362.87934431 170.08412418 352.00779693 164.8125 341.125 C164.49132202 340.46201904 164.17014404 339.79903809 163.8392334 339.1159668 C162.54355586 336.44138667 161.24789192 333.76679997 159.95233154 331.09216309 C156.16140852 323.26701368 152.36205417 315.44596115 148.5625 307.625 C148.20983063 306.89903625 147.85716125 306.17307251 147.49380493 305.42510986 C145.70964265 301.75244893 143.92540339 298.0798254 142.14111328 294.40722656 C138.94742019 287.8335492 135.75448501 281.25950371 132.56149292 274.68548584 C130.79102635 271.0403088 129.02051069 267.39515561 127.25 263.75 C126.54166643 262.29166678 125.8333331 260.83333345 125.125 259.375 C124.774375 258.653125 124.42375 257.93125 124.0625 257.1875 C94.66666667 196.66666667 65.27083333 136.14583333 35.875 75.625 C35.52444046 74.90326096 35.17388092 74.18152191 34.81269836 73.43791199 C34.10370005 71.97820719 33.39470551 70.51850056 32.68571472 69.05879211 C30.92508627 65.43392723 29.16439434 61.80909321 27.40356445 58.18432617 C24.09434642 51.37194309 20.78578374 44.55924385 17.4793396 37.74551392 C15.92347598 34.53937428 14.36726856 31.33340157 12.81103516 28.12744141 C12.07176844 26.60424997 11.33266879 25.08097744 10.59375 23.55761719 C9.56683421 21.44054722 8.53932332 19.32376696 7.51171875 17.20703125 C7.19689545 16.55755524 6.88207214 15.90807922 6.55770874 15.23892212 C4.91326999 11.85280564 3.23621859 8.48670074 1.51953125 5.13671875 C0 2 0 2 0 0 Z " fill="#000000" transform="translate(3249,207)"/>
<path d="M0 0 C0.73710205 -0.00067474 1.4742041 -0.00134949 2.23364258 -0.00204468 C13.12484002 0.0137976 23.41439808 0.46608772 34 3.25 C35.00909424 3.49943359 35.00909424 3.49943359 36.03857422 3.75390625 C57.48228718 9.10368911 76.16879423 18.97506951 93 33.25 C94.10214844 34.13365234 94.10214844 34.13365234 95.2265625 35.03515625 C111.59858027 48.65922051 123.87583788 69.13797625 127 90.25 C127.31369168 95.82397603 127.33071874 101.39105366 127.3359375 106.97265625 C127.34238044 108.6029827 127.34910986 110.23330805 127.35610962 111.8636322 C127.36804002 115.27361728 127.3717951 118.68350141 127.37060547 122.09350586 C127.37040314 126.41789398 127.39763478 130.7416186 127.43214989 135.06585026 C127.4546285 138.43351585 127.45843659 141.80102744 127.45738602 145.1687603 C127.45971333 146.76043406 127.46837039 148.35211401 127.48405075 149.94371223 C127.72915118 177.40335605 117.04814564 199.97303596 98.125 219.625 C68.62513363 249.20771891 26.33650208 257.27826842 -13.8125 257.5625 C-24.49505159 257.52794653 -34.67079428 257.06358083 -45 254.25 C-45.71623535 254.05664062 -46.4324707 253.86328125 -47.17041016 253.6640625 C-68.00828729 247.81736651 -85.28890205 237.03851189 -101 222.25 C-101.59167969 221.72277344 -102.18335938 221.19554687 -102.79296875 220.65234375 C-123.55872723 201.36633053 -135.90145929 171.00079477 -137.14355469 143.015625 C-138.15431208 106.98862883 -132.30715569 73.9783447 -109 45.25 C-108.31292969 44.39664063 -107.62585937 43.54328125 -106.91796875 42.6640625 C-85.31144717 17.24934138 -51.21914741 3.65362303 -18.62207031 0.41772461 C-12.42205296 0.02113132 -6.21045877 0.00510899 0 0 Z " fill="#FEFEFE" transform="translate(1302,313.75)"/>
<path d="M0 0 C0.76304443 0.63760254 0.76304443 0.63760254 1.54150391 1.28808594 C14.77874175 12.4400917 24.11961902 25.67378716 32 41 C32.49242187 41.94359375 32.98484375 42.8871875 33.4921875 43.859375 C48.28416605 74.17833725 48.84762669 112.74417151 38.17919922 144.43847656 C32.55362988 160.27047951 25.04429661 174.25823368 14 187 C13.33742188 187.79535156 12.67484375 188.59070313 11.9921875 189.41015625 C2.30195489 200.69158942 -8.99693611 209.82106293 -22 217 C-23.08667969 217.60457031 -24.17335938 218.20914063 -25.29296875 218.83203125 C-55.29154712 234.67708012 -90.8685839 238.0178804 -123.39013672 228.28466797 C-157.11528573 217.7238551 -184.59625875 194.73870662 -201.3125 163.6875 C-217.17562347 133.13092695 -220.82346268 96.81037816 -210.75 63.8125 C-204.41336011 44.42218934 -195.17072002 27.73345619 -181 13 C-179.7934375 11.453125 -179.7934375 11.453125 -178.5625 9.875 C-134.27354604 -39.8150459 -49.44328669 -41.9096745 0 0 Z " fill="#FEFEFE" transform="translate(1971,338)"/>
<path d="M0 0 C25.81832739 22.92789454 42.55077063 55.0566939 44.93359375 89.734375 C44.99740234 91.10335937 44.99740234 91.10335937 45.0625 92.5 C45.14177734 93.99273437 45.14177734 93.99273437 45.22265625 95.515625 C45.67836543 112.23817065 42.86076186 128.84122096 37.0625 144.5 C36.69382812 145.51835937 36.32515625 146.53671875 35.9453125 147.5859375 C23.43114971 179.77754247 -1.76924656 205.40768471 -33.17626953 219.50488281 C-59.8306706 230.78327068 -90.73445198 233.63477658 -118.9375 226.5 C-119.72060547 226.30664062 -120.50371094 226.11328125 -121.31054688 225.9140625 C-144.19169381 220.09042416 -163.86239356 209.89096195 -180.9375 193.5 C-182.11119141 192.40365234 -182.11119141 192.40365234 -183.30859375 191.28515625 C-201.25502776 174.06505347 -210.20995657 150.69644061 -211.0536499 126.11605835 C-211.2166825 118.10077692 -211.22427933 110.08660174 -211.19824219 102.07006836 C-211.18681664 98.51713233 -211.19345366 94.96449767 -211.20538712 91.41157246 C-211.21269257 88.62562379 -211.21027905 85.83974396 -211.20513153 83.05379295 C-211.20319535 81.12100904 -211.20914555 79.18822217 -211.21539307 77.25544739 C-211.06776281 49.02870707 -201.50974489 26.48268837 -182.125 6.3125 C-132.90534894 -40.92310311 -51.96067684 -44.78917428 0 0 Z " fill="#FEFEFE" transform="translate(2551.9375,341.5)"/>
<path d="M0 0 C0.33 0 0.66 0 1 0 C1.09331432 8.11998555 1.16407234 16.23974134 1.20724869 24.36013317 C1.22798734 28.13212927 1.25604797 31.90375442 1.30175781 35.67553711 C1.34571327 39.32604345 1.3692398 42.97619653 1.37950897 46.6269474 C1.38681247 48.00901146 1.40107 49.39105958 1.42292023 50.7729702 C1.69041201 68.41699348 -3.5607056 81.76158901 -15.6015625 94.5625 C-16.39304687 95.366875 -17.18453125 96.17125 -18 97 C-18.75023438 97.763125 -19.50046875 98.52625 -20.2734375 99.3125 C-49.58373501 127.35690426 -96.47023474 134.64141662 -135.40234375 133.9453125 C-154.92061032 133.34546883 -176.83018275 131.74336065 -192 118 C-199.24035908 109.37479053 -201.63463813 99.75800619 -200.82421875 88.57421875 C-199.0839147 78.67733812 -193.07134485 70.70201459 -185 65 C-157.31169342 46.41774077 -120.67890937 41.86985423 -88.55778503 35.52490234 C-60.93990185 30.08900075 -60.93990185 30.08900075 -34 22 C-33.26974609 21.74508789 -32.53949219 21.49017578 -31.78710938 21.22753906 C-20.56173746 17.24216926 -5.68658935 11.37317869 0 0 Z " fill="#FEFEFE" transform="translate(3093,445)"/>
<path d="M0 0 C5.4775241 4.91784408 9.60955371 9.75579808 10.30078125 17.26953125 C10.3515447 32.61701492 10.3515447 32.61701492 4.91796875 38.1015625 C1.77845202 42.8460053 2.52109326 47.89005581 2.59960938 53.43164062 C2.51712729 59.86039174 1.08555302 63.99446651 -3 69 C-7.84043156 73.49468645 -11.89973099 74.48173672 -18.36328125 74.40625 C-22.88768943 73.709156 -25.98729551 71.36133623 -29 68 C-33.78034538 61.36015971 -33.50643207 55.61466137 -33.40039062 47.65039062 C-33.4803267 41.10973892 -34.5184804 38.71134112 -39 34 C-42.01149095 27.11919948 -42.2188575 18.82142997 -40.3828125 11.55859375 C-37.48623954 5.00926286 -31.69135413 -0.07954357 -25.1875 -2.9375 C-16.65495297 -5.60913899 -7.60735935 -4.72787953 0 0 Z " fill="#02AED6" transform="translate(569,492)"/>
</svg>
