<?xml version="1.0" encoding="UTF-8"?>
<svg version="1.1" xmlns="http://www.w3.org/2000/svg" width="512" height="512">
<path d="M0 0 C1.13824219 -0.03996094 2.27648437 -0.07992187 3.44921875 -0.12109375 C6.3125 0.4375 6.3125 0.4375 8.68359375 2.453125 C10.74554629 6.23089896 10.83154059 9.4364513 10.6875 13.625 C10.68556641 14.71071289 10.68556641 14.71071289 10.68359375 15.81835938 C10.59422304 21.15577696 10.59422304 21.15577696 8.3125 23.4375 C6.28602409 23.68359566 6.28602409 23.68359566 3.74411011 23.67800903 C2.78214722 23.68075836 1.82018433 23.68350769 0.82907104 23.68634033 C-0.2297226 23.67914978 -1.28851624 23.67195923 -2.37939453 23.66455078 C-3.49159363 23.66484283 -4.60379272 23.66513489 -5.74969482 23.66543579 C-9.43997904 23.66403818 -13.13006339 23.64845662 -16.8203125 23.6328125 C-19.3733611 23.6290839 -21.92641113 23.62623621 -24.47946167 23.62423706 C-30.52139939 23.61737103 -36.56325082 23.60159495 -42.60515392 23.58153808 C-49.4829311 23.55920092 -56.36071168 23.54819116 -63.23851609 23.53814721 C-77.3882174 23.51722928 -91.53785475 23.48203969 -105.6875 23.4375 C-105.49921228 25.88230079 -105.49921228 25.88230079 -104.6875 28.4375 C-101.72527297 30.65937698 -98.96936145 30.68776422 -95.34951782 30.6890564 C-94.26726425 30.69443924 -93.18501068 30.69982208 -92.06996155 30.70536804 C-90.2963047 30.69918205 -90.2963047 30.69918205 -88.48681641 30.69287109 C-86.61308098 30.69830177 -86.61308098 30.69830177 -84.70149231 30.70384216 C-81.98680576 30.71074013 -79.27236727 30.71412449 -76.5576973 30.71189499 C-72.26262955 30.70905935 -67.96772597 30.72342336 -63.67269897 30.74087524 C-51.46020979 30.78787766 -39.24773188 30.81184071 -27.03515625 30.81835938 C-20.28821592 30.82211266 -13.54146149 30.8401631 -6.79460084 30.87345374 C-2.52769761 30.89364712 1.7387255 30.89604845 6.00565696 30.88517356 C9.28818787 30.88194868 12.57055904 30.90466929 15.85302734 30.92333984 C17.6206115 30.91108116 17.6206115 30.91108116 19.42390442 30.89857483 C25.53434891 30.96048561 29.61447307 31.10241724 34.3125 35.4375 C35.08557495 36.14592545 35.8586499 36.85435089 36.65515137 37.58424377 C39.06649178 41.73555625 38.87220677 45.36694711 38.83007812 50.08959961 C38.8370874 51.05604904 38.84409668 52.02249847 38.85131836 53.01823425 C38.86890566 56.20906411 38.85727169 59.39900505 38.84375 62.58984375 C38.84644491 64.81035024 38.85032733 67.03085558 38.85534668 69.25135803 C38.86124293 73.90425862 38.85267522 78.55685194 38.83398438 83.2097168 C38.81120839 89.16960363 38.82430903 95.12876941 38.84827423 101.08862972 C38.86273991 105.67405106 38.85812237 110.25930195 38.84776306 114.84472847 C38.84509723 117.04193774 38.84836045 119.23916256 38.85768127 121.43635368 C38.8678577 124.50998692 38.85232901 127.58245894 38.83007812 130.65600586 C38.83817505 131.56165283 38.84627197 132.4672998 38.85461426 133.40039062 C38.78088371 138.90723987 37.97733539 142.06404975 34.3125 146.4375 C30.25799307 150.00055154 26.90097248 150.56282235 21.60124207 150.58467102 C19.8158477 150.59540398 19.8158477 150.59540398 17.99438477 150.60635376 C16.03299561 150.61038712 16.03299561 150.61038712 14.03198242 150.61450195 C12.64227631 150.6207678 11.25257187 150.62741471 9.86286926 150.63441467 C5.29791426 150.65544133 0.73295898 150.66581507 -3.83203125 150.67578125 C-5.4041362 150.67982919 -6.97624097 150.68394612 -8.54834557 150.68813133 C-15.93374681 150.70717916 -23.31913807 150.7214116 -30.70455915 150.7297433 C-39.22777256 150.7395176 -47.75072641 150.76584366 -56.27384835 150.80624419 C-62.86333461 150.83640664 -69.45274645 150.85121225 -76.0423004 150.85452431 C-79.97731558 150.85687448 -83.91205332 150.86583041 -87.8469944 150.89098549 C-91.54970786 150.91427403 -95.25196135 150.91849661 -98.95472908 150.90822411 C-100.95745914 150.90749309 -102.96016588 150.92657838 -104.96279907 150.94628906 C-115.82170092 150.8833869 -115.82170092 150.8833869 -120.6875 146.4375 C-121.265 145.963125 -121.8425 145.48875 -122.4375 145 C-125.21760297 141.52487129 -125.93754688 137.84388939 -125.95492554 133.48625183 C-125.96345551 132.51489792 -125.97198547 131.54354401 -125.98077393 130.54275513 C-125.97986755 129.4886142 -125.97896118 128.43447327 -125.97802734 127.34838867 C-125.98474457 126.2290947 -125.99146179 125.10980072 -125.99838257 123.95658875 C-126.01738116 120.25617026 -126.0212878 116.55593298 -126.0234375 112.85546875 C-126.02986431 110.28103053 -126.03659259 107.70659305 -126.04360962 105.13215637 C-126.0555872 99.73448686 -126.05937566 94.33688915 -126.05810547 88.93920898 C-126.05690492 82.71399882 -126.07799266 76.48913583 -126.1095928 70.26401347 C-126.13897215 64.26095303 -126.14607952 58.25808001 -126.14488602 52.25493813 C-126.14724374 49.7076914 -126.15607682 47.16044201 -126.17155075 44.6132412 C-126.19118695 41.04680107 -126.18538086 37.48124993 -126.17333984 33.91479492 C-126.18457886 32.86672668 -126.19581787 31.81865845 -126.20739746 30.73883057 C-126.1539904 24.50100803 -125.37480257 19.59979324 -121.6875 14.4375 C-117.45175194 10.76181114 -113.96221664 9.83372094 -108.4453125 9.27734375 C-107.75317657 9.20402328 -107.06104065 9.13070282 -106.34793091 9.05516052 C-104.12922682 8.82787433 -101.90959616 8.62860583 -99.6875 8.4375 C-98.60341858 8.34193817 -98.60341858 8.34193817 -97.49743652 8.2444458 C-92.98568345 7.85379002 -88.47133909 7.50708394 -83.9548645 7.17599487 C-71.20217487 6.23784018 -58.47036636 5.18204072 -45.75 3.875 C-43.93109253 3.6888916 -43.93109253 3.6888916 -42.07543945 3.49902344 C-39.73126873 3.25892401 -37.38711134 3.01869426 -35.04296875 2.77832031 C-10.93846205 0.32998712 -10.93846205 0.32998712 0 0 Z " fill="#EE4D2D" transform="translate(154.6875,162.5625)"/>
<path d="M0 0 C0.89498199 -0.00630432 1.78996399 -0.01260864 2.71206665 -0.019104 C4.16822891 -0.01303131 4.16822891 -0.01303131 5.65380859 -0.00683594 C7.15263077 -0.00970612 7.15263077 -0.00970612 8.68173218 -0.01263428 C10.8018214 -0.01399759 12.92191892 -0.01029103 15.04199219 -0.00195312 C18.26826095 0.00867709 21.49396427 -0.00180862 24.72021484 -0.01464844 C26.78141398 -0.01332555 28.84261277 -0.01076049 30.90380859 -0.00683594 C31.86243805 -0.0108844 32.8210675 -0.01493286 33.80874634 -0.019104 C41.29024205 0.0325056 47.92152565 0.87702996 54.48974609 4.75878906 C55.21806641 5.18160156 55.94638672 5.60441406 56.69677734 6.04003906 C58.38023441 7.07601264 60.03254784 8.16232356 61.67724609 9.25878906 C61.67724609 9.91878906 61.67724609 10.57878906 61.67724609 11.25878906 C62.33724609 11.25878906 62.99724609 11.25878906 63.67724609 11.25878906 C63.67724609 11.91878906 63.67724609 12.57878906 63.67724609 13.25878906 C64.33724609 13.25878906 64.99724609 13.25878906 65.67724609 13.25878906 C67.11474609 15.23535156 67.11474609 15.23535156 68.67724609 17.88378906 C69.19287109 18.74230469 69.70849609 19.60082031 70.23974609 20.48535156 C75.0667077 29.79823944 75.0800964 41.18238592 73.06005859 51.37207031 C69.67817019 60.75456601 63.01837644 68.08849976 54.46240234 73.00488281 C53.54330078 73.41867187 52.62419922 73.83246094 51.67724609 74.25878906 C51.1093335 74.52876709 50.5414209 74.79874512 49.95629883 75.0769043 C42.16940201 78.26343252 33.86551366 77.58649127 25.61474609 77.44628906 C24.06593099 77.43121425 22.51710168 77.4175308 20.96826172 77.40527344 C17.20423432 77.37249045 13.44089972 77.32086404 9.67724609 77.25878906 C9.68771973 78.46003418 9.69819336 79.6612793 9.70898438 80.89892578 C9.74511897 85.34551018 9.76812266 89.79208154 9.78710938 94.23876953 C9.79718191 96.165224 9.81084053 98.09166314 9.828125 100.01806641 C9.8523185 102.78324158 9.86371645 105.54821506 9.87255859 108.31347656 C9.88288116 109.17810516 9.89320374 110.04273376 9.90383911 110.93356323 C9.90423715 113.04332427 9.79989852 115.15259625 9.67724609 117.25878906 C7.67724609 119.25878906 7.67724609 119.25878906 4.92724609 119.52441406 C3.85474609 119.51925781 2.78224609 119.51410156 1.67724609 119.50878906 C0.06849609 119.51652344 0.06849609 119.51652344 -1.57275391 119.52441406 C-4.32275391 119.25878906 -4.32275391 119.25878906 -6.32275391 117.25878906 C-6.57443619 115.22228241 -6.57443619 115.22228241 -6.57672119 112.66589355 C-6.58236084 111.69840683 -6.58800049 110.7309201 -6.59381104 109.7341156 C-6.58976257 108.66911331 -6.58571411 107.60411102 -6.58154297 106.50683594 C-6.58504761 105.38809586 -6.58855225 104.26935577 -6.59216309 103.11671448 C-6.60099504 99.40359364 -6.59512601 95.69066197 -6.58837891 91.97753906 C-6.58972513 89.40685998 -6.59166531 86.83618114 -6.59417725 84.26550293 C-6.5971305 78.8717992 -6.59301399 73.47816711 -6.58349609 68.08447266 C-6.57261122 61.84396908 -6.5761367 55.60359617 -6.5871489 49.36309576 C-6.59730916 43.36591118 -6.59624559 37.36879067 -6.59038544 31.37159729 C-6.58904743 28.8166146 -6.5907019 26.2616286 -6.59534454 23.70664978 C-6.60040078 20.14125625 -6.5927121 16.57611671 -6.58154297 13.01074219 C-6.58559143 11.9457399 -6.58963989 10.88073761 -6.59381104 9.78346252 C-6.58817139 8.8159758 -6.58253174 7.84848907 -6.57672119 6.85168457 C-6.57596714 6.00807625 -6.57521309 5.16446793 -6.57443619 4.29529572 C-6.05839372 0.11969818 -3.61292853 0.0072898 0 0 Z M9.67724609 16.25878906 C9.67724609 30.77878906 9.67724609 45.29878906 9.67724609 60.25878906 C14.46224609 60.32066406 19.24724609 60.38253906 24.17724609 60.44628906 C25.670625 60.47360107 27.16400391 60.50091309 28.70263672 60.52905273 C40.06856001 60.65107227 40.06856001 60.65107227 49.88427734 55.46191406 C54.22263589 50.18410561 57.19968579 45.87460278 58.11474609 38.94628906 C57.52528679 33.97798919 55.72184543 29.79524385 53.67724609 25.25878906 C53.01724609 25.25878906 52.35724609 25.25878906 51.67724609 25.25878906 C51.67724609 24.59878906 51.67724609 23.93878906 51.67724609 23.25878906 C51.01724609 23.25878906 50.35724609 23.25878906 49.67724609 23.25878906 C49.67724609 22.59878906 49.67724609 21.93878906 49.67724609 21.25878906 C48.62537109 20.61941406 47.57349609 19.98003906 46.48974609 19.32128906 C45.89806641 18.96164063 45.30638672 18.60199219 44.69677734 18.23144531 C40.31390271 16.12054438 35.85555972 16.13925338 31.06396484 16.16113281 C29.93949951 16.16363037 28.81503418 16.16612793 27.65649414 16.16870117 C26.24021729 16.17780518 24.82394043 16.18690918 23.36474609 16.19628906 C16.58943359 16.22722656 16.58943359 16.22722656 9.67724609 16.25878906 Z " fill="#EE4D2D" transform="translate(237.32275390625,193.7412109375)"/>
<path d="M0 0 C0.928125 0.763125 1.85625 1.52625 2.8125 2.3125 C3.121875 1.178125 3.43125 0.04375 3.75 -1.125 C4.8125 -4.6875 4.8125 -4.6875 5.8125 -5.6875 C9.7725 -5.6875 13.7325 -5.6875 17.8125 -5.6875 C17.8125 18.7325 17.8125 43.1525 17.8125 68.3125 C13.5225 68.3125 9.2325 68.3125 4.8125 68.3125 C4.1525 66.0025 3.4925 63.6925 2.8125 61.3125 C1.70841797 61.94478516 1.70841797 61.94478516 0.58203125 62.58984375 C-0.39378906 63.13769531 -1.36960937 63.68554688 -2.375 64.25 C-3.33792969 64.79527344 -4.30085938 65.34054687 -5.29296875 65.90234375 C-13.56743281 69.93349291 -25.78827376 69.54951802 -34.625 67.1875 C-45.27597425 63.32741537 -52.39213782 56.21072788 -57.34765625 46.1328125 C-59.45788909 41.21805134 -59.88095305 36.8084569 -59.8125 31.5 C-59.80629639 30.62778809 -59.80009277 29.75557617 -59.79370117 28.85693359 C-59.54395966 21.26619873 -57.55265345 15.57827051 -53.1875 9.3125 C-52.79304688 8.7040625 -52.39859375 8.095625 -51.9921875 7.46875 C-46.71824572 0.24013049 -38.80697713 -3.40441351 -30.296875 -5.21875 C-19.83896825 -6.79531886 -8.88506852 -6.28020907 0 0 Z M-28.625 11.1875 C-30.07712891 11.70957031 -30.07712891 11.70957031 -31.55859375 12.2421875 C-34.35044554 13.27668239 -34.35044554 13.27668239 -37.1875 15.3125 C-37.1875 15.9725 -37.1875 16.6325 -37.1875 17.3125 C-37.8475 17.3125 -38.5075 17.3125 -39.1875 17.3125 C-43.24813921 23.59994135 -44.98054567 28.47944593 -43.4375 35.9375 C-42.22678193 39.20643879 -40.83487483 42.24239236 -39.1875 45.3125 C-38.5275 45.3125 -37.8675 45.3125 -37.1875 45.3125 C-37.1875 45.9725 -37.1875 46.6325 -37.1875 47.3125 C-35.75179734 48.12817174 -34.31386566 48.93992093 -32.875 49.75 C-32.07449219 50.20246094 -31.27398437 50.65492188 -30.44921875 51.12109375 C-25.64440863 53.65212499 -21.30366659 54.14049399 -16.01171875 52.734375 C-8.46911767 49.86844713 -3.32228831 44.41129356 0.375 37.3125 C1.28894823 31.04542639 0.58299571 25.31235233 -2.90625 19.94140625 C-7.88520418 13.61145536 -13.35460086 10.94495064 -21.1875 9.3125 C-23.93399056 9.3125 -26.04667526 10.24930481 -28.625 11.1875 Z " fill="#EE4D2D" transform="translate(368.1875,243.6875)"/>
<path d="M0 0 C4.33338835 0.22965954 5.91683034 0.69937538 9.10180664 3.84375 C11.32713873 7.20909936 13.11343117 10.81070623 14.91870117 14.4140625 C17.76616301 19.82219147 21.09761355 24.9465389 24.34399414 30.12109375 C25.00407471 31.20197266 25.66415527 32.28285156 26.34423828 33.39648438 C27.27224243 34.89985352 27.27224243 34.89985352 28.21899414 36.43359375 C29.05043945 37.78904297 29.05043945 37.78904297 29.89868164 39.171875 C30.37563477 39.81511719 30.85258789 40.45835937 31.34399414 41.12109375 C32.00399414 41.12109375 32.66399414 41.12109375 33.34399414 41.12109375 C33.87766602 40.15171875 34.41133789 39.18234375 34.96118164 38.18359375 C40.08099534 28.94839846 45.40577278 19.87187949 51.16894531 11.02099609 C52.39343153 9.09841918 52.39343153 9.09841918 53.48193359 6.89697266 C54.63263523 4.7433703 55.69509691 2.92388806 57.34399414 1.12109375 C61.04321289 0.26953125 61.04321289 0.26953125 65.03149414 0.49609375 C65.70760742 0.51542969 66.3837207 0.53476563 67.08032227 0.5546875 C72.0028999 0.77999951 72.0028999 0.77999951 74.34399414 3.12109375 C74.07371569 7.80028949 71.64826398 11.53815446 69.34399414 15.49609375 C68.94245117 16.19726318 68.5409082 16.89843262 68.12719727 17.62084961 C63.96864686 24.84884488 59.66622884 31.99024741 55.34399414 39.12109375 C50.93422227 46.41221849 46.55290044 53.71175176 42.34399414 61.12109375 C37.77044702 69.172348 32.98740944 77.09221984 28.19848633 85.01660156 C27.05816378 86.90480432 25.91926365 88.79385156 24.78149414 90.68359375 C24.41354736 91.29468994 24.04560059 91.90578613 23.66650391 92.53540039 C20.6385925 97.58547876 17.70611056 102.68719133 14.81835938 107.81860352 C12.44535975 112.01972814 12.44535975 112.01972814 11.34399414 113.12109375 C8.48131847 113.19434543 5.64327515 113.2134758 2.78149414 113.18359375 C1.97518555 113.17908203 1.16887695 113.17457031 0.33813477 113.16992188 C-1.65994342 113.15809893 -3.65798369 113.14016289 -5.65600586 113.12109375 C-6.17246427 107.70661046 -4.49263403 104.26547404 -1.78100586 99.74609375 C-1.17905396 98.70932495 -1.17905396 98.70932495 -0.56494141 97.65161133 C2.76848045 91.95859794 6.27753814 86.3742179 9.80224609 80.79833984 C16.5718423 71.06702996 16.5718423 71.06702996 20.34399414 60.12109375 C19.7346955 58.2402689 19.7346955 58.2402689 18.53149414 56.37109375 C18.0687207 55.58992188 17.60594727 54.80875 17.12915039 54.00390625 C16.24549805 52.57691406 16.24549805 52.57691406 15.34399414 51.12109375 C14.97773926 50.52651367 14.61148437 49.93193359 14.23413086 49.31933594 C10.0673509 42.56412731 5.82293858 35.86021738 1.53149414 29.18359375 C-0.9609505 25.28440634 -3.26484465 21.32704081 -5.45288086 17.25 C-6.70387246 15.03639474 -8.10121999 12.97256474 -9.53100586 10.87109375 C-11.24443981 8.18849872 -11.67062234 7.46458106 -11.53100586 4.18359375 C-9.54750273 -0.49180649 -4.52050561 0.11939269 0 0 Z " fill="#EE4D2D" transform="translate(408.656005859375,235.87890625)"/>
<path d="M0 0 C0.99 0.66 1.98 1.32 3 2 C2.125 6.75 2.125 6.75 1 9 C-2.61055738 8.38639901 -5.69385124 7.35507618 -9.0625 5.9375 C-15.08361608 3.71619636 -20.63197865 3.06900273 -27 4 C-30.91343752 5.92239036 -33.98270327 8.07747858 -36 12 C-36.53261556 16.1087486 -36.26889853 18.42859062 -34.5 22.1875 C-30.23831732 26.98189302 -25.26913074 28.70230983 -19.1875 30.375 C-9.84734032 33.04361705 0.7497279 38.43522329 6.18359375 46.828125 C8.32326599 52.52026743 8.03634961 59.31621187 5.8671875 64.93359375 C1.77730491 72.13906753 -3.00380515 75.78452343 -11 78 C-13.90038122 78.32534279 -16.77050861 78.38114621 -19.6875 78.375 C-20.48188477 78.37338867 -21.27626953 78.37177734 -22.09472656 78.37011719 C-31.99389078 78.16480715 -40.90611726 75.09388274 -48 68 C-47.61121812 64.98694043 -46.73543126 63.60314689 -45 61 C-42.86261674 62.05884194 -40.74076556 63.13731726 -38.6328125 64.25390625 C-32.13843627 67.65677524 -32.13843627 67.65677524 -25 69 C-23.63875 69.0928125 -23.63875 69.0928125 -22.25 69.1875 C-15.63592685 69.45206293 -10.38188103 69.11396921 -5 65 C-1.959191 61.57908988 -1.43840792 58.36661315 -1.671875 53.9140625 C-2.25162329 50.53219749 -3.42091023 49.27919561 -6 47 C-11.72306731 43.23826507 -17.65066699 40.68613842 -24.125 38.5 C-31.80431254 35.85892208 -39.62505755 32.33519714 -44.1875 25.25390625 C-46.47535422 18.90731065 -46.14487908 11.50992721 -43.375 5.4375 C-30.2013375 -8.08283783 -16.46119166 -6.73134232 0 0 Z " fill="#FEF6F4" transform="translate(132,217)"/>
</svg>
