<?xml version="1.0" encoding="UTF-8"?>
<svg version="1.1" xmlns="http://www.w3.org/2000/svg" width="528" height="528">
<path d="M0 0 C174.24 0 348.48 0 528 0 C528 174.24 528 348.48 528 528 C353.76 528 179.52 528 0 528 C0 353.76 0 179.52 0 0 Z " fill="#FCFCFC" transform="translate(0,0)"/>
<path d="M0 0 C21.12 0 42.24 0 64 0 C64 10.89 64 21.78 64 33 C59.05 33 54.1 33 49 33 C49 38.28 49 43.56 49 49 C53.95 49 58.9 49 64 49 C64 54.28 64 59.56 64 65 C75.22 65 86.44 65 98 65 C98 59.72 98 54.44 98 49 C102.95 49 107.9 49 113 49 C113 43.72 113 38.44 113 33 C118.61 33 124.22 33 130 33 C130 27.39 130 21.78 130 16 C135.28 16 140.56 16 146 16 C146 32.17 146 48.34 146 65 C156.89 65 167.78 65 179 65 C179 48.83 179 32.66 179 16 C173.39 16 167.78 16 162 16 C162 10.72 162 5.44 162 0 C178.17 0 194.34 0 211 0 C211 5.28 211 10.56 211 16 C205.72 16 200.44 16 195 16 C195 21.61 195 27.22 195 33 C200.28 33 205.56 33 211 33 C211 43.56 211 54.12 211 65 C200.77 65 190.54 65 180 65 C180 70.61 180 76.22 180 82 C184.95 82 189.9 82 195 82 C195 87.28 195 92.56 195 98 C190.05 98 185.1 98 180 98 C180 103.28 180 108.56 180 114 C174.39 114 168.78 114 163 114 C163 119.28 163 124.56 163 130 C168.28 130 173.56 130 179 130 C179 140.56 179 151.12 179 162 C173.72 162 168.44 162 163 162 C163 157.05 163 152.1 163 147 C135.94 147 108.88 147 81 147 C81 141.72 81 136.44 81 131 C86.61 131 92.22 131 98 131 C98 120.11 98 109.22 98 98 C92.72 98 87.44 98 82 98 C82 103.28 82 108.56 82 114 C76.06 114 70.12 114 64 114 C64 103.44 64 92.88 64 82 C59.05 82 54.1 82 49 82 C49 76.39 49 70.78 49 65 C43.72 65 38.44 65 33 65 C33 70.61 33 76.22 33 82 C27.39 82 21.78 82 16 82 C16 92.56 16 103.12 16 114 C21.61 114 27.22 114 33 114 C33 119.61 33 125.22 33 131 C27.39 131 21.78 131 16 131 C16 135.95 16 140.9 16 146 C26.56 146 37.12 146 48 146 C48 141.05 48 136.1 48 131 C53.61 131 59.22 131 65 131 C65 136.28 65 141.56 65 147 C59.72 147 54.44 147 49 147 C49 151.95 49 156.9 49 162 C75.73 162 102.46 162 130 162 C130 163.98 130 165.96 130 168 C129.12601562 167.7834375 128.25203125 167.566875 127.3515625 167.34375 C107.23245702 162.78848083 85.46495176 163.75919303 67.5 175.0625 C64.81742943 176.92949511 64.81742943 176.92949511 63 180 C60.35418391 180.22296203 58.00720498 180.28148752 55.375 180.1875 C52.94125 180.125625 50.5075 180.06375 48 180 C48 174.39 48 168.78 48 163 C43.05 163 38.1 163 33 163 C33 168.61 33 174.22 33 180 C27.39 180 21.78 180 16 180 C16 185.28 16 190.56 16 196 C10.72 196 5.44 196 0 196 C0 206.56 0 217.12 0 228 C10.89 228 21.78 228 33 228 C33 233.61 33 239.22 33 245 C11.22 245 -10.56 245 -33 245 C-33 239.72 -33 234.44 -33 229 C-27.39 229 -21.78 229 -16 229 C-16 223.06 -16 217.12 -16 211 C-26.89 211 -37.78 211 -49 211 C-49 222.22 -49 233.44 -49 245 C-54.28 245 -59.56 245 -65 245 C-65 249.95 -65 254.9 -65 260 C-59.72 260 -54.44 260 -49 260 C-49 265.94 -49 271.88 -49 278 C-44.05 278 -39.1 278 -34 278 C-33.505 285.425 -33.505 285.425 -33 293 C-27.72 293.33 -22.44 293.66 -17 294 C-17 298.95 -17 303.9 -17 309 C-22.61 309 -28.22 309 -34 309 C-34 314.61 -34 320.22 -34 326 C-49.84 326 -65.68 326 -82 326 C-82 320.72 -82 315.44 -82 310 C-76.39 310 -70.78 310 -65 310 C-65 304.39 -65 298.78 -65 293 C-70.61 293 -76.22 293 -82 293 C-82 287.72 -82 282.44 -82 277 C-76.39 277 -70.78 277 -65 277 C-65 271.72 -65 266.44 -65 261 C-70.61 261 -76.22 261 -82 261 C-82 255.72 -82 250.44 -82 245 C-87.28 245 -92.56 245 -98 245 C-98 239.72 -98 234.44 -98 229 C-103.28 229 -108.56 229 -114 229 C-114 239.23 -114 249.46 -114 260 C-119.61 260 -125.22 260 -131 260 C-131 249.44 -131 238.88 -131 228 C-125.39 228 -119.78 228 -114 228 C-114 222.72 -114 217.44 -114 212 C-119.61 212 -125.22 212 -131 212 C-131 206.72 -131 201.44 -131 196 C-114.83 196 -98.66 196 -82 196 C-82 201.28 -82 206.56 -82 212 C-76.39 212 -70.78 212 -65 212 C-65 201.44 -65 190.88 -65 180 C-70.61 180 -76.22 180 -82 180 C-82 169.11 -82 158.22 -82 147 C-76.39 147 -70.78 147 -65 147 C-65 152.28 -65 157.56 -65 163 C-59.72 163 -54.44 163 -49 163 C-49 173.56 -49 184.12 -49 195 C-38.44 195 -27.88 195 -17 195 C-17 190.05 -17 185.1 -17 180 C-22.28 180 -27.56 180 -33 180 C-33 174.39 -33 168.78 -33 163 C-27.39 163 -21.78 163 -16 163 C-16 168.28 -16 173.56 -16 179 C-5.77 179 4.46 179 15 179 C15 168.44 15 157.88 15 147 C-0.84 147 -16.68 147 -33 147 C-33 141.72 -33 136.44 -33 131 C-22.11 131 -11.22 131 0 131 C0 103.94 0 76.88 0 49 C10.89 49 21.78 49 33 49 C33 43.72 33 38.44 33 33 C37.95 33 42.9 33 48 33 C48 27.39 48 21.78 48 16 C32.16 16 16.32 16 0 16 C0 10.72 0 5.44 0 0 Z " fill="#040404" transform="translate(157,30)"/>
<path d="M0 0 C0.99 0.33 1.98 0.66 3 1 C3 11.56 3 22.12 3 33 C13.23 33 23.46 33 34 33 C34 27.39 34 21.78 34 16 C39.61 16 45.22 16 51 16 C51 21.94 51 27.88 51 34 C56.28 34 61.56 34 67 34 C67 44.56 67 55.12 67 66 C72.28 66 77.56 66 83 66 C83 71.61 83 77.22 83 83 C93.89 83 104.78 83 116 83 C116 87.95 116 92.9 116 98 C110.72 98 105.44 98 100 98 C100 103.28 100 108.56 100 114 C110.56 114 121.12 114 132 114 C132 119.61 132 125.22 132 131 C121.44 131 110.88 131 100 131 C100 136.28 100 141.56 100 147 C105.28 147 110.56 147 116 147 C116 152.28 116 157.56 116 163 C94.55 163 73.1 163 51 163 C51 168.61 51 174.22 51 180 C34.83 180 18.66 180 2 180 C2 185.61 2 191.22 2 197 C-3.61 197 -9.22 197 -15 197 C-15 191.72 -15 186.44 -15 181 C-20.28 181 -25.56 181 -31 181 C-31 175.39 -31 169.78 -31 164 C-46.84 164 -62.68 164 -79 164 C-79 169.28 -79 174.56 -79 180 C-84.61 180 -90.22 180 -96 180 C-96 169.11 -96 158.22 -96 147 C-90.72 147 -85.44 147 -80 147 C-80 141.72 -80 136.44 -80 131 C-74.39 131 -68.78 131 -63 131 C-63 136.28 -63 141.56 -63 147 C-52.44 147 -41.88 147 -31 147 C-31 142.05 -31 137.1 -31 132 C-36.28 132 -41.56 132 -47 132 C-47 120.78 -47 109.56 -47 98 C-41.39 98 -35.78 98 -30 98 C-30 103.28 -30 108.56 -30 114 C-25.05 114 -20.1 114 -15 114 C-15 103.44 -15 92.88 -15 82 C-9.39 82 -3.78 82 2 82 C2 66.16 2 50.32 2 34 C-2.62 34 -7.24 34 -12 34 C-11 30 -11 30 -10 28 C-9.34 28 -8.68 28 -8 28 C-7.82984375 27.46632813 -7.6596875 26.93265625 -7.484375 26.3828125 C-6.11267022 22.16554992 -4.62542508 18.0758073 -2.875 14 C-0.93924898 9.28622461 -0.32726104 5.07254606 0 0 Z " fill="#010101" transform="translate(334,274)"/>
<path d="M0 0 C32.34 0 64.68 0 98 0 C98 5.28 98 10.56 98 16 C108.89 16 119.78 16 131 16 C131 10.72 131 5.44 131 0 C136.28 0 141.56 0 147 0 C147 21.45 147 42.9 147 65 C141.72 65 136.44 65 131 65 C131 70.28 131 75.56 131 81 C136.28 81 141.56 81 147 81 C147 96.84 147 112.68 147 129 C141.72 129 136.44 129 131 129 C131 134.94 131 140.88 131 147 C136.28 147 141.56 147 147 147 C147 184.29 147 221.58 147 260 C136.11 260 125.22 260 114 260 C114 255.05 114 250.1 114 245 C119.61 245 125.22 245 131 245 C131 228.5 131 212 131 195 C125.39 195 119.78 195 114 195 C114 189.72 114 184.44 114 179 C108.72 179 103.44 179 98 179 C98 173.72 98 168.44 98 163 C87.11 163 76.22 163 65 163 C65 157.39 65 151.78 65 146 C75.89 146 86.78 146 98 146 C98 151.28 98 156.56 98 162 C103.28 162 108.56 162 114 162 C114 146.16 114 130.32 114 114 C103.44 114 92.88 114 82 114 C82 118.95 82 123.9 82 129 C76.39 129 70.78 129 65 129 C65 124.05 65 119.1 65 114 C59.72 114 54.44 114 49 114 C49 108.39 49 102.78 49 97 C44.05 97 39.1 97 34 97 C34 91.72 34 86.44 34 81 C60.4 81 86.8 81 114 81 C114 70.44 114 59.88 114 49 C119.61 49 125.22 49 131 49 C131 43.39 131 37.78 131 32 C103.94 32 76.88 32 49 32 C49 42.89 49 53.78 49 65 C43.72 65 38.44 65 33 65 C33 48.83 33 32.66 33 16 C27.72 16 22.44 16 17 16 C17 26.89 17 37.78 17 49 C11.72 49 6.44 49 1 49 C1 53.95 1 58.9 1 64 C5.95 64 10.9 64 16 64 C16 80.5 16 97 16 114 C10.72 114 5.44 114 0 114 C0 108.72 0 103.44 0 98 C-5.28 98 -10.56 98 -16 98 C-16 92.06 -16 86.12 -16 80 C-10.72 80 -5.44 80 0 80 C0 75.05 0 70.1 0 65 C-3.21363281 65.05220703 -3.21363281 65.05220703 -6.4921875 65.10546875 C-8.56395128 65.1288555 -10.63570044 65.14707697 -12.70751953 65.16479492 C-14.14899258 65.17989483 -15.59041959 65.20037658 -17.03173828 65.22631836 C-19.10200343 65.2626513 -21.17166207 65.27971329 -23.2421875 65.29296875 C-24.4885498 65.3086792 -25.73491211 65.32438965 -27.01904297 65.34057617 C-28.00275879 65.22818604 -28.98647461 65.1157959 -30 65 C-33.2830098 60.0754853 -32.11530805 54.82305673 -32 49 C-26.39 49 -20.78 49 -15 49 C-15 43.39 -15 37.78 -15 32 C-10.05 32 -5.1 32 0 32 C0 21.44 0 10.88 0 0 Z " fill="#020202" transform="translate(352,161)"/>
<path d="M0 0 C37.95 0 75.9 0 115 0 C115 38.28 115 76.56 115 116 C77.05 116 39.1 116 0 116 C0 77.72 0 39.44 0 0 Z " fill="#060606" transform="translate(26,388)"/>
<path d="M0 0 C37.95 0 75.9 0 115 0 C115 37.62 115 75.24 115 114 C77.05 114 39.1 114 0 114 C0 76.38 0 38.76 0 0 Z " fill="#FBFBFB" transform="translate(26,30)"/>
<path d="M0 0 C37.62 0 75.24 0 114 0 C114 37.62 114 75.24 114 114 C76.38 114 38.76 114 0 114 C0 76.38 0 38.76 0 0 Z " fill="#FBFBFB" transform="translate(385,30)"/>
<path d="M0 0 C0.33 0 0.66 0 1 0 C1 4.95 1 9.9 1 15 C11.56 15 22.12 15 33 15 C33 10.05 33 5.1 33 0 C38.61 0 44.22 0 50 0 C50 5.28 50 10.56 50 16 C44.72 16 39.44 16 34 16 C34 20.95 34 25.9 34 31 C60.73 31 87.46 31 115 31 C115 32.98 115 34.96 115 37 C114.12601562 36.7834375 113.25203125 36.566875 112.3515625 36.34375 C92.23245702 31.78848083 70.46495176 32.75919303 52.5 44.0625 C49.81742943 45.92949511 49.81742943 45.92949511 48 49 C45.35418391 49.22296203 43.00720498 49.28148752 40.375 49.1875 C37.94125 49.125625 35.5075 49.06375 33 49 C33 43.39 33 37.78 33 32 C28.05 32 23.1 32 18 32 C18 37.61 18 43.22 18 49 C12.39 49 6.78 49 1 49 C1 54.28 1 59.56 1 65 C-4.28 65 -9.56 65 -15 65 C-15 75.56 -15 86.12 -15 97 C-4.11 97 6.78 97 18 97 C18 102.61 18 108.22 18 114 C-3.78 114 -25.56 114 -48 114 C-48 108.72 -48 103.44 -48 98 C-42.39 98 -36.78 98 -31 98 C-31 92.06 -31 86.12 -31 80 C-41.89 80 -52.78 80 -64 80 C-64 91.22 -64 102.44 -64 114 C-69.28 114 -74.56 114 -80 114 C-80 118.95 -80 123.9 -80 129 C-74.72 129 -69.44 129 -64 129 C-64 134.94 -64 140.88 -64 147 C-59.05 147 -54.1 147 -49 147 C-48.505 154.425 -48.505 154.425 -48 162 C-42.72 162.33 -37.44 162.66 -32 163 C-32 167.95 -32 172.9 -32 178 C-37.61 178 -43.22 178 -49 178 C-49 183.61 -49 189.22 -49 195 C-64.84 195 -80.68 195 -97 195 C-97 189.72 -97 184.44 -97 179 C-91.39 179 -85.78 179 -80 179 C-80 173.39 -80 167.78 -80 162 C-85.61 162 -91.22 162 -97 162 C-97 156.72 -97 151.44 -97 146 C-91.39 146 -85.78 146 -80 146 C-80 140.72 -80 135.44 -80 130 C-85.61 130 -91.22 130 -97 130 C-97 124.72 -97 119.44 -97 114 C-102.28 114 -107.56 114 -113 114 C-113 108.72 -113 103.44 -113 98 C-118.28 98 -123.56 98 -129 98 C-129 108.23 -129 118.46 -129 129 C-134.61 129 -140.22 129 -146 129 C-146 118.44 -146 107.88 -146 97 C-140.39 97 -134.78 97 -129 97 C-129 91.72 -129 86.44 -129 81 C-134.61 81 -140.22 81 -146 81 C-146 75.72 -146 70.44 -146 65 C-129.83 65 -113.66 65 -97 65 C-97 70.28 -97 75.56 -97 81 C-91.39 81 -85.78 81 -80 81 C-80 70.44 -80 59.88 -80 49 C-85.61 49 -91.22 49 -97 49 C-97 38.11 -97 27.22 -97 16 C-91.39 16 -85.78 16 -80 16 C-80 21.28 -80 26.56 -80 32 C-74.72 32 -69.44 32 -64 32 C-64 42.56 -64 53.12 -64 64 C-53.44 64 -42.88 64 -32 64 C-32 59.05 -32 54.1 -32 49 C-37.28 49 -42.56 49 -48 49 C-48 43.39 -48 37.78 -48 32 C-42.39 32 -36.78 32 -31 32 C-31 37.28 -31 42.56 -31 48 C-20.77 48 -10.54 48 0 48 C0 32.16 0 16.32 0 0 Z " fill="#060606" transform="translate(172,161)"/>
<path d="M0 0 C0.93021973 0.00257813 1.86043945 0.00515625 2.81884766 0.0078125 C16.05091271 0.29161014 26.99617217 4.854998 37.6875 12.4375 C38.65816406 13.03949219 39.62882812 13.64148438 40.62890625 14.26171875 C43.9526306 16.62610504 46.27694144 19.11218974 48.875 22.25 C49.71417969 23.24644531 50.55335938 24.24289063 51.41796875 25.26953125 C53.77718005 28.56268161 55.22439289 31.67032098 56.6875 35.4375 C57.06132812 36.31535156 57.43515625 37.19320312 57.8203125 38.09765625 C58.14773438 38.89042969 58.47515625 39.68320313 58.8125 40.5 C59.14507812 41.29535156 59.47765625 42.09070313 59.8203125 42.91015625 C63.91647563 54.84807312 63.32636931 71.79853512 58.6875 83.4375 C58.40132813 84.16582031 58.11515625 84.89414062 57.8203125 85.64453125 C57.15113259 87.26012274 56.42699811 88.85286119 55.6875 90.4375 C55.0275 90.4375 54.3675 90.4375 53.6875 90.4375 C53.44 91.118125 53.1925 91.79875 52.9375 92.5 C50.08266215 99.20886894 47.65491548 102.940968 41.58984375 106.98046875 C39.57406083 108.38110111 39.57406083 108.38110111 38.140625 110.56640625 C36.6875 112.4375 36.6875 112.4375 33.5 113.1875 C32.571875 113.27 31.64375 113.3525 30.6875 113.4375 C30.6875 114.4275 30.6875 115.4175 30.6875 116.4375 C28.7075 116.7675 26.7275 117.0975 24.6875 117.4375 C24.6875 118.0975 24.6875 118.7575 24.6875 119.4375 C7.60823744 123.85455066 -9.18526485 124.50111757 -25.3125 116.4375 C-30.81009226 116.00631629 -35.86041595 116.80103721 -41.25 117.875 C-42.26259888 118.07657715 -42.26259888 118.07657715 -43.2956543 118.28222656 C-46.58425683 118.7662691 -46.58425683 118.7662691 -49.3125 120.4375 C-51.98308851 120.57865161 -54.63682238 120.47997107 -57.3125 120.4375 C-56.88146135 115.26503623 -56.13281273 110.46112894 -54.8125 105.4375 C-51.9633547 95.27318161 -51.9633547 95.27318161 -54.41625977 85.35131836 C-58.10735245 77.46941272 -58.76762243 69.32446078 -58.625 60.75 C-58.62822266 59.76966797 -58.63144531 58.78933594 -58.63476562 57.77929688 C-58.53189058 43.81634721 -53.63169864 30.92476326 -43.765625 20.859375 C-43.28609375 20.39015625 -42.8065625 19.9209375 -42.3125 19.4375 C-41.61125 18.695 -40.91 17.9525 -40.1875 17.1875 C-37.77161984 14.8766581 -35.34167078 12.73153044 -32.75 10.625 C-32.00621094 10.02042969 -31.26242188 9.41585937 -30.49609375 8.79296875 C-28.3125 7.4375 -28.3125 7.4375 -24.3125 7.4375 C-24.3125 6.7775 -24.3125 6.1175 -24.3125 5.4375 C-16.15108741 1.12581033 -9.11730382 -0.03658507 0 0 Z " fill="#F7F7F7" transform="translate(261.3125,204.5625)"/>
<path d="M0 0 C10.28130672 -0.35934664 10.28130672 -0.35934664 15 2 C21.16579118 4.50811845 26.25293904 5.65058781 33 7 C33 18.22 33 29.44 33 41 C37.95 41.33 42.9 41.66 48 42 C48 46.95 48 51.9 48 57 C37.44 57 26.88 57 16 57 C16 62.61 16 68.22 16 74 C10.39 74 4.78 74 -1 74 C-1 63.44 -1 52.88 -1 42 C-5.95 42 -10.9 42 -16 42 C-16 52.89 -16 63.78 -16 75 C-21.28 75 -26.56 75 -32 75 C-32 80.28 -32 85.56 -32 91 C-37.61 91 -43.22 91 -49 91 C-49 95.95 -49 100.9 -49 106 C-43.39 106 -37.78 106 -32 106 C-32 116.89 -32 127.78 -32 139 C-27.05 139 -22.1 139 -17 139 C-17 122.83 -17 106.66 -17 90 C-11.39 90 -5.78 90 0 90 C0 106.17 0 122.34 0 139 C10.89 139 21.78 139 33 139 C33 144.28 33 149.56 33 155 C37.95 155 42.9 155 48 155 C48 144.44 48 133.88 48 123 C53.94 123 59.88 123 66 123 C66 128.28 66 133.56 66 139 C71.28 139 76.56 139 82 139 C82 144.61 82 150.22 82 156 C71.11 156 60.22 156 49 156 C49 161.61 49 167.22 49 173 C11.38 173 -26.24 173 -65 173 C-65 167.06 -65 161.12 -65 155 C-60.05 155 -55.1 155 -50 155 C-50 139.16 -50 123.32 -50 107 C-54.95 107 -59.9 107 -65 107 C-66 106 -66 106 -66.09765625 102.40234375 C-66.09191272 100.91402745 -66.07889891 99.42573704 -66.0625 97.9375 C-66.041875 95.318125 -66.02125 92.69875 -66 90 C-60.72 90 -55.44 90 -50 90 C-50 85.05 -50 80.1 -50 75 C-54.95 75 -59.9 75 -65 75 C-65 64.11 -65 53.22 -65 42 C-60.05 42 -55.1 42 -50 42 C-49.67 46.95 -49.34 51.9 -49 57 C-43.39 57.33 -37.78 57.66 -32 58 C-32 47.44 -32 36.88 -32 26 C-26.72 26 -21.44 26 -16 26 C-16 20.39 -16 14.78 -16 9 C-10.72 9 -5.44 9 0 9 C0 6.03 0 3.06 0 0 Z " fill="#040404" transform="translate(222,331)"/>
<path d="M0 0 C26.73 0 53.46 0 81 0 C81 27.06 81 54.12 81 82 C54.27 82 27.54 82 0 82 C0 54.94 0 27.88 0 0 Z " fill="#F7F7F7" transform="translate(43,405)"/>
<path d="M0 0 C37.95 0 75.9 0 115 0 C115 37.62 115 75.24 115 114 C77.05 114 39.1 114 0 114 C0 76.38 0 38.76 0 0 Z M17 16 C17 43.06 17 70.12 17 98 C43.73 98 70.46 98 98 98 C98 70.94 98 43.88 98 16 C71.27 16 44.54 16 17 16 Z " fill="#030303" transform="translate(26,30)"/>
<path d="M0 0 C37.62 0 75.24 0 114 0 C114 37.62 114 75.24 114 114 C76.38 114 38.76 114 0 114 C0 76.38 0 38.76 0 0 Z M16 16 C16 43.06 16 70.12 16 98 C43.06 98 70.12 98 98 98 C98 70.94 98 43.88 98 16 C70.94 16 43.88 16 16 16 Z " fill="#030303" transform="translate(385,30)"/>
<path d="M0 0 C16.17 0 32.34 0 49 0 C49 5.28 49 10.56 49 16 C43.72 16 38.44 16 33 16 C33 21.61 33 27.22 33 33 C38.28 33 43.56 33 49 33 C49 43.56 49 54.12 49 65 C38.77 65 28.54 65 18 65 C18 70.61 18 76.22 18 82 C22.95 82 27.9 82 33 82 C33 87.28 33 92.56 33 98 C28.05 98 23.1 98 18 98 C18 103.28 18 108.56 18 114 C12.39 114 6.78 114 1 114 C1 119.28 1 124.56 1 130 C6.28 130 11.56 130 17 130 C17 130.33 17 130.66 17 131 C11.39 131 5.78 131 0 131 C0 125.39 0 119.78 0 114 C-4.95 114 -9.9 114 -15 114 C-15 119.61 -15 125.22 -15 131 C-26.22 131 -37.44 131 -49 131 C-49 120.11 -49 109.22 -49 98 C-43.39 98 -37.78 98 -32 98 C-32 92.72 -32 87.44 -32 82 C-37.61 82 -43.22 82 -49 82 C-49 76.39 -49 70.78 -49 65 C-43.06 65 -37.12 65 -31 65 C-31 70.61 -31 76.22 -31 82 C-15.16 82 0.68 82 17 82 C17 60.22 17 38.44 17 16 C11.39 16 5.78 16 0 16 C0 10.72 0 5.44 0 0 Z " fill="#6C6C6C" transform="translate(319,30)"/>
<path d="M0 0 C5.61 0 11.22 0 17 0 C17 5.61 17 11.22 17 17 C22.28 17 27.56 17 33 17 C33 27.89 33 38.78 33 50 C27.72 50 22.44 50 17 50 C17 55.61 17 61.22 17 67 C11.39 67 5.78 67 0 67 C0 55.78 0 44.56 0 33 C-5.28 33 -10.56 33 -16 33 C-16 38.28 -16 43.56 -16 49 C-21.28 49 -26.56 49 -32 49 C-32 54.94 -32 60.88 -32 67 C-48.17 67 -64.34 67 -81 67 C-81 61.06 -81 55.12 -81 49 C-86.61 49 -92.22 49 -98 49 C-98 54.61 -98 60.22 -98 66 C-108.56 66 -119.12 66 -130 66 C-130 60.39 -130 54.78 -130 49 C-124.72 49 -119.44 49 -114 49 C-114 43.72 -114 38.44 -114 33 C-97.83 33 -81.66 33 -65 33 C-65 38.28 -65 43.56 -65 49 C-59.72 49 -54.44 49 -49 49 C-49 43.72 -49 38.44 -49 33 C-43.39 33 -37.78 33 -32 33 C-32 27.72 -32 22.44 -32 17 C-21.44 17 -10.88 17 0 17 C0 11.39 0 5.78 0 0 Z " fill="#070707" transform="translate(466,437)"/>
<path d="M0 0 C10.28130672 -0.35934664 10.28130672 -0.35934664 15 2 C21.16579118 4.50811845 26.25293904 5.65058781 33 7 C33 18.22 33 29.44 33 41 C37.95 41.33 42.9 41.66 48 42 C48 46.95 48 51.9 48 57 C37.44 57 26.88 57 16 57 C16 62.61 16 68.22 16 74 C10.72 74 5.44 74 0 74 C0 63.11 0 52.22 0 41 C-5.61 41 -11.22 41 -17 41 C-17 51.89 -17 62.78 -17 74 C-22.28 74 -27.56 74 -33 74 C-33 79.28 -33 84.56 -33 90 C-38.28 90 -43.56 90 -49 90 C-49 84.72 -49 79.44 -49 74 C-54.28 74 -59.56 74 -65 74 C-65 63.44 -65 52.88 -65 42 C-60.05 42 -55.1 42 -50 42 C-49.67 46.95 -49.34 51.9 -49 57 C-43.39 57.33 -37.78 57.66 -32 58 C-32 47.44 -32 36.88 -32 26 C-26.72 26 -21.44 26 -16 26 C-16 20.39 -16 14.78 -16 9 C-10.72 9 -5.44 9 0 9 C0 6.03 0 3.06 0 0 Z " fill="#010101" transform="translate(222,331)"/>
<path d="M0 0 C0.93021973 0.00257813 1.86043945 0.00515625 2.81884766 0.0078125 C16.05091271 0.29161014 26.99617217 4.854998 37.6875 12.4375 C38.65816406 13.03949219 39.62882812 13.64148438 40.62890625 14.26171875 C43.9526306 16.62610504 46.27694144 19.11218974 48.875 22.25 C49.71417969 23.24644531 50.55335938 24.24289063 51.41796875 25.26953125 C53.77718005 28.56268161 55.22439289 31.67032098 56.6875 35.4375 C57.06132812 36.31535156 57.43515625 37.19320312 57.8203125 38.09765625 C58.14773438 38.89042969 58.47515625 39.68320313 58.8125 40.5 C59.14507812 41.29535156 59.47765625 42.09070313 59.8203125 42.91015625 C63.91647563 54.84807312 63.32636931 71.79853512 58.6875 83.4375 C58.40132813 84.16582031 58.11515625 84.89414062 57.8203125 85.64453125 C57.15113259 87.26012274 56.42699811 88.85286119 55.6875 90.4375 C55.0275 90.4375 54.3675 90.4375 53.6875 90.4375 C53.44 91.118125 53.1925 91.79875 52.9375 92.5 C50.08266215 99.20886894 47.65491548 102.940968 41.58984375 106.98046875 C39.57406083 108.38110111 39.57406083 108.38110111 38.140625 110.56640625 C36.6875 112.4375 36.6875 112.4375 33.5 113.1875 C32.571875 113.27 31.64375 113.3525 30.6875 113.4375 C30.6875 114.4275 30.6875 115.4175 30.6875 116.4375 C28.7075 116.7675 26.7275 117.0975 24.6875 117.4375 C24.6875 118.0975 24.6875 118.7575 24.6875 119.4375 C7.60823744 123.85455066 -9.18526485 124.50111757 -25.3125 116.4375 C-30.81009226 116.00631629 -35.86041595 116.80103721 -41.25 117.875 C-42.26259888 118.07657715 -42.26259888 118.07657715 -43.2956543 118.28222656 C-46.58425683 118.7662691 -46.58425683 118.7662691 -49.3125 120.4375 C-51.98308851 120.57865161 -54.63682238 120.47997107 -57.3125 120.4375 C-56.88146135 115.26503623 -56.13281273 110.46112894 -54.8125 105.4375 C-51.9633547 95.27318161 -51.9633547 95.27318161 -54.41625977 85.35131836 C-58.10735245 77.46941272 -58.76762243 69.32446078 -58.625 60.75 C-58.62822266 59.76966797 -58.63144531 58.78933594 -58.63476562 57.77929688 C-58.53189058 43.81634721 -53.63169864 30.92476326 -43.765625 20.859375 C-43.28609375 20.39015625 -42.8065625 19.9209375 -42.3125 19.4375 C-41.61125 18.695 -40.91 17.9525 -40.1875 17.1875 C-37.77161984 14.8766581 -35.34167078 12.73153044 -32.75 10.625 C-32.00621094 10.02042969 -31.26242188 9.41585937 -30.49609375 8.79296875 C-28.3125 7.4375 -28.3125 7.4375 -24.3125 7.4375 C-24.3125 6.7775 -24.3125 6.1175 -24.3125 5.4375 C-16.15108741 1.12581033 -9.11730382 -0.03658507 0 0 Z M-35.99609375 27.2421875 C-46.70536289 40.64963614 -48.66079206 54.81637112 -47.3125 71.4375 C-46.22379955 76.59721779 -45.11399556 81.63600444 -41.3125 85.4375 C-40.76826844 91.4240472 -41.9124375 96.29562818 -43.65625 102.01953125 C-44.44346494 104.50246987 -44.44346494 104.50246987 -44.3125 107.4375 C-39.52460908 106.91047309 -39.52460908 106.91047309 -35 105.375 C-30.92305249 103.95280901 -26.57871823 103.73527293 -22.3125 104.4375 C-21.6525 105.4275 -20.9925 106.4175 -20.3125 107.4375 C-13.34913041 111.6838192 -4.49221369 111.64487938 3.4375 111.75 C4.50037231 111.77634521 4.50037231 111.77634521 5.5847168 111.80322266 C10.68360452 111.79725835 14.11835491 110.70278182 18.6875 108.4375 C19.42097656 108.086875 20.15445313 107.73625 20.91015625 107.375 C22.20212157 106.71667372 23.49233842 106.0549102 24.78125 105.390625 C26.40173652 104.58038174 28.07258719 103.87215829 29.75 103.1875 C33.99166645 100.66054977 36.6672026 97.29822798 39.6875 93.4375 C40.30109375 92.65890625 40.9146875 91.8803125 41.546875 91.078125 C50.95484703 78.45375227 52.12302969 65.84348249 50.6875 50.4375 C50.17295213 48.00644775 49.50042447 45.79172925 48.6875 43.4375 C48.0275 43.4375 47.3675 43.4375 46.6875 43.4375 C46.52894531 42.78523438 46.37039063 42.13296875 46.20703125 41.4609375 C45.85705078 40.14996094 45.85705078 40.14996094 45.5 38.8125 C45.27957031 37.95398438 45.05914062 37.09546875 44.83203125 36.2109375 C42.28465803 30.03812184 37.47198272 26.18470707 32.25 22.3125 C31.70279297 21.89613281 31.15558594 21.47976562 30.59179688 21.05078125 C10.21831291 5.66819809 -18.23722111 8.20599455 -35.99609375 27.2421875 Z " fill="#111111" transform="translate(261.3125,204.5625)"/>
<path d="M0 0 C0.99 0.33 1.98 0.66 3 1 C3 11.56 3 22.12 3 33 C13.23 33 23.46 33 34 33 C34 27.39 34 21.78 34 16 C39.61 16 45.22 16 51 16 C51 16.33 51 16.66 51 17 C45.72 17 40.44 17 35 17 C35 22.94 35 28.88 35 35 C24.44 35 13.88 35 3 35 C3 50.51 3 66.02 3 82 C8.28 82 13.56 82 19 82 C19.02291161 86.53904366 19.04283781 91.07788802 19.05493164 95.61694336 C19.0599714 97.16219766 19.0668032 98.70744716 19.07543945 100.25268555 C19.08752076 102.46925029 19.09323173 104.68575218 19.09765625 106.90234375 C19.10281754 107.5971434 19.10797882 108.29194305 19.11329651 109.00779724 C19.11349277 110.6722933 19.06189129 112.33665499 19 114 C18 115 18 115 14.62109375 115.09765625 C13.22652923 115.09098369 11.83198257 115.07902532 10.4375 115.0625 C9.37112305 115.05573242 9.37112305 115.05573242 8.28320312 115.04882812 C6.52209987 115.03700864 4.76103964 115.01907263 3 115 C3.01160156 116.14339844 3.02320313 117.28679687 3.03515625 118.46484375 C3.04453288 119.95572754 3.05363321 121.44661309 3.0625 122.9375 C3.07087891 123.69224609 3.07925781 124.44699219 3.08789062 125.22460938 C3.09652441 127.14994313 3.05224333 129.07535581 3 131 C2 132 2 132 -1.81640625 132.09765625 C-3.39847047 132.09191138 -4.98051031 132.07889593 -6.5625 132.0625 C-9.346875 132.041875 -12.13125 132.02125 -15 132 C-15 126.39 -15 120.78 -15 115 C-20.28 115 -25.56 115 -31 115 C-31 109.72 -31 104.44 -31 99 C-35.95 99 -40.9 99 -46 99 C-46 109.56 -46 120.12 -46 131 C-40.72 131 -35.44 131 -30 131 C-30 136.28 -30 141.56 -30 147 C-24.72 147 -19.44 147 -14 147 C-13.979375 149.619375 -13.95875 152.23875 -13.9375 154.9375 C-13.928396 155.7637085 -13.91929199 156.58991699 -13.90991211 157.44116211 C-13.90276055 159.29433759 -13.9497148 161.14749308 -14 163 C-15 164 -15 164 -18.37890625 164.09765625 C-19.77347492 164.09191424 -21.16801597 164.07890228 -22.5625 164.0625 C-25.016875 164.041875 -27.47125 164.02125 -30 164 C-30 169.28 -30 174.56 -30 180 C-24.72 180 -19.44 180 -14 180 C-14 185.28 -14 190.56 -14 196 C-8.72 196 -3.44 196 2 196 C2 196.33 2 196.66 2 197 C-3.61 197 -9.22 197 -15 197 C-15 191.72 -15 186.44 -15 181 C-20.28 181 -25.56 181 -31 181 C-31 175.39 -31 169.78 -31 164 C-46.84 164 -62.68 164 -79 164 C-79 169.28 -79 174.56 -79 180 C-84.61 180 -90.22 180 -96 180 C-96 169.11 -96 158.22 -96 147 C-90.72 147 -85.44 147 -80 147 C-80 141.72 -80 136.44 -80 131 C-74.39 131 -68.78 131 -63 131 C-63 136.28 -63 141.56 -63 147 C-52.44 147 -41.88 147 -31 147 C-31 142.05 -31 137.1 -31 132 C-36.28 132 -41.56 132 -47 132 C-47 120.78 -47 109.56 -47 98 C-41.39 98 -35.78 98 -30 98 C-30 103.28 -30 108.56 -30 114 C-25.05 114 -20.1 114 -15 114 C-15 103.44 -15 92.88 -15 82 C-9.39 82 -3.78 82 2 82 C2 66.16 2 50.32 2 34 C-2.62 34 -7.24 34 -12 34 C-11 30 -11 30 -10 28 C-9.34 28 -8.68 28 -8 28 C-7.82984375 27.46632813 -7.6596875 26.93265625 -7.484375 26.3828125 C-6.11267022 22.16554992 -4.62542508 18.0758073 -2.875 14 C-0.93924898 9.28622461 -0.32726104 5.07254606 0 0 Z " fill="#767676" transform="translate(334,274)"/>
<path d="M0 0 C5.28 0 10.56 0 16 0 C16 5.28 16 10.56 16 16 C37.12 16 58.24 16 80 16 C80 26.56 80 37.12 80 48 C69.77 48 59.54 48 49 48 C49 42.72 49 37.44 49 32 C43.39 32 37.78 32 32 32 C32 37.61 32 43.22 32 49 C37.28 49 42.56 49 48 49 C48 53.95 48 58.9 48 64 C37.44 64 26.88 64 16 64 C16 53.44 16 42.88 16 32 C10.72 32 5.44 32 0 32 C0 21.44 0 10.88 0 0 Z " fill="#F4F4F4" transform="translate(92,161)"/>
<path d="M0 0 C5.28 0 10.56 0 16 0 C16 5.61 16 11.22 16 17 C20.95 17 25.9 17 31 17 C31.495 24.425 31.495 24.425 32 32 C37.28 32.33 42.56 32.66 48 33 C48 37.95 48 42.9 48 48 C42.39 48 36.78 48 31 48 C31 53.61 31 59.22 31 65 C15.16 65 -0.68 65 -17 65 C-17 59.72 -17 54.44 -17 49 C-11.39 49 -5.78 49 0 49 C0 43.39 0 37.78 0 32 C-5.61 32 -11.22 32 -17 32 C-17 26.72 -17 21.44 -17 16 C-11.39 16 -5.78 16 0 16 C0 10.72 0 5.44 0 0 Z " fill="#020202" transform="translate(92,291)"/>
<path d="M0 0 C16.17 0 32.34 0 49 0 C49 16.5 49 33 49 50 C32.83 50 16.66 50 0 50 C0 33.5 0 17 0 0 Z " fill="#F5F5F5" transform="translate(368,372)"/>
<path d="M0 0 C16.17 0 32.34 0 49 0 C49 16.17 49 32.34 49 49 C32.83 49 16.66 49 0 49 C0 32.83 0 16.66 0 0 Z " fill="#030303" transform="translate(59,421)"/>
<path d="M0 0 C16.17 0 32.34 0 49 0 C49 16.17 49 32.34 49 49 C32.83 49 16.66 49 0 49 C0 32.83 0 16.66 0 0 Z " fill="#020202" transform="translate(417,63)"/>
<path d="M0 0 C16.17 0 32.34 0 49 0 C49 16.17 49 32.34 49 49 C32.83 49 16.66 49 0 49 C0 32.83 0 16.66 0 0 Z " fill="#020202" transform="translate(59,63)"/>
<path d="M0 0 C0.33 0 0.66 0 1 0 C1 4.95 1 9.9 1 15 C11.56 15 22.12 15 33 15 C33 10.05 33 5.1 33 0 C38.61 0 44.22 0 50 0 C50 5.28 50 10.56 50 16 C44.72 16 39.44 16 34 16 C34 20.95 34 25.9 34 31 C60.73 31 87.46 31 115 31 C115 32.98 115 34.96 115 37 C114.12601563 36.7834375 113.25203125 36.566875 112.3515625 36.34375 C92.23245702 31.78848083 70.46495176 32.75919303 52.5 44.0625 C49.81742943 45.92949511 49.81742943 45.92949511 48 49 C45.35418391 49.22296203 43.00720498 49.28148752 40.375 49.1875 C37.94125 49.125625 35.5075 49.06375 33 49 C33 43.39 33 37.78 33 32 C28.05 32 23.1 32 18 32 C18 37.61 18 43.22 18 49 C12.39 49 6.78 49 1 49 C1 54.28 1 59.56 1 65 C-4.28 65 -9.56 65 -15 65 C-15 64.67 -15 64.34 -15 64 C-10.05 64 -5.1 64 0 64 C0 59.05 0 54.1 0 49 C-10.23 49 -20.46 49 -31 49 C-31 54.28 -31 59.56 -31 65 C-41.89 65 -52.78 65 -64 65 C-64 64.67 -64 64.34 -64 64 C-53.44 64 -42.88 64 -32 64 C-32 59.05 -32 54.1 -32 49 C-37.28 49 -42.56 49 -48 49 C-48 43.39 -48 37.78 -48 32 C-42.39 32 -36.78 32 -31 32 C-31 37.28 -31 42.56 -31 48 C-20.77 48 -10.54 48 0 48 C0 32.16 0 16.32 0 0 Z " fill="#878787" transform="translate(172,161)"/>
<path d="M0 0 C15.84 0 31.68 0 48 0 C48 5.28 48 10.56 48 16 C42.72 16 37.44 16 32 16 C32 21.61 32 27.22 32 33 C37.28 33 42.56 33 48 33 C48 43.56 48 54.12 48 65 C37.77 65 27.54 65 17 65 C17 48.5 17 32 17 15 C11.39 15 5.78 15 0 15 C0 10.05 0 5.1 0 0 Z " fill="#000000" transform="translate(320,30)"/>
<path d="M0 0 C21.45 0 42.9 0 65 0 C65 5.28 65 10.56 65 16 C59.72 16.33 54.44 16.66 49 17 C48.67 27.23 48.34 37.46 48 48 C43.05 48 38.1 48 33 48 C33 42.72 33 37.44 33 32 C27.72 32 22.44 32 17 32 C17 26.72 17 21.44 17 16 C11.39 16 5.78 16 0 16 C0 10.72 0 5.44 0 0 Z " fill="#010101" transform="translate(124,291)"/>
<path d="M0 0 C22.11 0 44.22 0 67 0 C67 5.94 67 11.88 67 18 C61.39 18 55.78 18 50 18 C50 28.56 50 39.12 50 50 C44.72 50 39.44 50 34 50 C34 55.61 34 61.22 34 67 C28.72 67 23.44 67 18 67 C18 72.28 18 77.56 18 83 C12.39 83 6.78 83 1 83 C1 77.72 1 72.44 1 67 C-15.17 67 -31.34 67 -48 67 C-48 66.67 -48 66.34 -48 66 C-32.16 66 -16.32 66 0 66 C0 60.39 0 54.78 0 49 C5.61 49 11.22 49 17 49 C17 44.05 17 39.1 17 34 C15.85660156 34.01160156 14.71320313 34.02320313 13.53515625 34.03515625 C12.04427246 34.04453288 10.55338691 34.05363321 9.0625 34.0625 C8.30775391 34.07087891 7.55300781 34.07925781 6.77539062 34.08789062 C4.85005687 34.09652441 2.92464419 34.05224333 1 34 C0 33 0 33 -0.09765625 29.62109375 C-0.09191424 28.22652508 -0.07890228 26.83198403 -0.0625 25.4375 C-0.041875 22.983125 -0.02125 20.52875 0 18 C-4.95 18 -9.9 18 -15 18 C-15 17.67 -15 17.34 -15 17 C-10.05 17 -5.1 17 0 17 C0 11.39 0 5.78 0 0 Z M1 1 C1 6.28 1 11.56 1 17 C6.61 17 12.22 17 18 17 C18 22.28 18 27.56 18 33 C23.28 33 28.56 33 34 33 C34 38.28 34 43.56 34 49 C38.95 49 43.9 49 49 49 C49.33 38.77 49.66 28.54 50 18 C55.28 17.67 60.56 17.34 66 17 C66 11.72 66 6.44 66 1 C44.55 1 23.1 1 1 1 Z " fill="#7C7C7C" transform="translate(123,290)"/>
<path d="M0 0 C4.95 0 9.9 0 15 0 C15 5.28 15 10.56 15 16 C25.89 16 36.78 16 48 16 C48 20.95 48 25.9 48 31 C31.83 31 15.66 31 -1 31 C-1 36.61 -1 42.22 -1 48 C-6.28 48 -11.56 48 -17 48 C-17 37.11 -17 26.22 -17 15 C-11.39 15 -5.78 15 0 15 C0 10.05 0 5.1 0 0 Z " fill="#040404" transform="translate(255,406)"/>
<path d="M0 0 C5.61 0 11.22 0 17 0 C17 5.61 17 11.22 17 17 C11.72 17 6.44 17 1 17 C1 32.51 1 48.02 1 64 C6.28 64 11.56 64 17 64 C17 69.61 17 75.22 17 81 C6.11 81 -4.78 81 -16 81 C-16 75.72 -16 70.44 -16 65 C-26.89 65 -37.78 65 -49 65 C-49 59.39 -49 53.78 -49 48 C-38.11 48 -27.22 48 -16 48 C-16 53.28 -16 58.56 -16 64 C-10.72 64 -5.44 64 0 64 C0 48.16 0 32.32 0 16 C-10.56 16 -21.12 16 -32 16 C-32 15.67 -32 15.34 -32 15 C-21.44 15 -10.88 15 0 15 C0 10.05 0 5.1 0 0 Z " fill="#2E2E2E" transform="translate(466,259)"/>
<path d="M0 0 C15.84 0 31.68 0 48 0 C48 10.56 48 21.12 48 32 C37.77 32 27.54 32 17 32 C17 26.72 17 21.44 17 16 C11.39 16 5.78 16 0 16 C0 10.72 0 5.44 0 0 Z " fill="#FDFDFD" transform="translate(124,177)"/>
<path d="M0 0 C2.83689085 3.38850851 4.47143215 6.88462501 6 11 C6.33 11.33 6.66 11.66 7 12 C7.375 14.75 7.375 14.75 7 18 C5.33333333 19.66666667 3.66666667 21.33333333 2 23 C1.44072616 26.78947227 1.6387309 28.46242529 3.79296875 31.66796875 C4.97826172 32.91513672 4.97826172 32.91513672 6.1875 34.1875 C6.96480469 35.02667969 7.74210937 35.86585938 8.54296875 36.73046875 C12.10698787 40.02251185 14.71205945 41.84183186 19.5625 42.4375 C23.07294446 42.35416094 23.07294446 42.35416094 25 39.9375 C25.66 39.298125 26.32 38.65875 27 38 C32.04610111 38.09344632 35.62006249 39.61959918 40 42 C41.65910004 42.68528045 43.32332564 43.35891863 45 44 C45.32494469 48.65754061 44.90547505 51.29301459 42 55 C36.32803532 59.12958832 30.75703768 58.6021897 24 58 C19.81274144 57.10039367 15.83559756 55.91779878 12 54 C12 53.34 12 52.68 12 52 C11.10539062 51.76023437 10.21078125 51.52046875 9.2890625 51.2734375 C5.68781662 49.8791309 3.99945779 48.41638444 1.375 45.625 C0.27285156 44.46871094 0.27285156 44.46871094 -0.8515625 43.2890625 C-1.56054688 42.53367187 -2.26953125 41.77828125 -3 41 C-3.71929687 40.31035156 -4.43859375 39.62070312 -5.1796875 38.91015625 C-7.20109917 36.78897533 -8.16581957 34.68580023 -9.20703125 31.96484375 C-9.97404121 29.96062318 -9.97404121 29.96062318 -11.07421875 28.00390625 C-14.80818596 20.86351282 -14.80448811 13.64122759 -13.6796875 5.75390625 C-12.61996916 3.01934571 -10.41782577 2.06010542 -7.90625 0.7734375 C-4.97698339 -0.41507641 -3.09826851 -0.68850411 0 0 Z " fill="#0B0B0B" transform="translate(248,237)"/>
<path d="M0 0 C15.84 0 31.68 0 48 0 C48 5.28 48 10.56 48 16 C42.39 16 36.78 16 31 16 C31 20.95 31 25.9 31 31 C26.05 31 21.1 31 16 31 C16 25.72 16 20.44 16 15 C10.72 15 5.44 15 0 15 C0 10.05 0 5.1 0 0 Z " fill="#FDFDFD" transform="translate(288,112)"/>
<path d="M0 0 C5.28 0 10.56 0 16 0 C16 5.28 16 10.56 16 16 C21.28 16 26.56 16 32 16 C32 21.28 32 26.56 32 32 C21.44 32 10.88 32 0 32 C0 21.44 0 10.88 0 0 Z " fill="#FEFEFE" transform="translate(271,128)"/>
<path d="M0 0 C10.56 0 21.12 0 32 0 C32 4.95 32 9.9 32 15 C27.05 15.33 22.1 15.66 17 16 C16.67 21.28 16.34 26.56 16 32 C10.72 32 5.44 32 0 32 C0 21.44 0 10.88 0 0 Z " fill="#010101" transform="translate(173,177)"/>
<path d="M0 0 C5.28 0 10.56 0 16 0 C16 5.61 16 11.22 16 17 C21.28 17 26.56 17 32 17 C32 21.95 32 26.9 32 32 C21.44 32 10.88 32 0 32 C0 21.44 0 10.88 0 0 Z " fill="#FCFCFC" transform="translate(108,193)"/>
<path d="M0 0 C5.28 0 10.56 0 16 0 C16 5.28 16 10.56 16 16 C21.28 16 26.56 16 32 16 C32 20.95 32 25.9 32 31 C21.44 31 10.88 31 0 31 C0 20.77 0 10.54 0 0 Z " fill="#000000" transform="translate(271,455)"/>
<path d="M0 0 C5.61 0 11.22 0 17 0 C17 5.28 17 10.56 17 16 C16.67 16 16.34 16 16 16 C16 11.05 16 6.1 16 1 C11.05 1 6.1 1 1 1 C1 11.56 1 22.12 1 33 C6.28 33 11.56 33 17 33 C17 38.28 17 43.56 17 49 C22.28 49 27.56 49 33 49 C33.020625 51.619375 33.04125 54.23875 33.0625 56.9375 C33.071604 57.7637085 33.08070801 58.58991699 33.09008789 59.44116211 C33.09723945 61.29433759 33.0502852 63.14749308 33 65 C32 66 32 66 28.62109375 66.09765625 C27.22652508 66.09191424 25.83198403 66.07890228 24.4375 66.0625 C21.983125 66.041875 19.52875 66.02125 17 66 C17 71.28 17 76.56 17 82 C22.28 82 27.56 82 33 82 C33 87.28 33 92.56 33 98 C38.28 98 43.56 98 49 98 C49 98.33 49 98.66 49 99 C43.39 99 37.78 99 32 99 C32 93.72 32 88.44 32 83 C26.72 83 21.44 83 16 83 C16 77.39 16 71.78 16 66 C0.16 66 -15.68 66 -32 66 C-32 71.28 -32 76.56 -32 82 C-32.33 82 -32.66 82 -33 82 C-33 76.39 -33 70.78 -33 65 C-16.83 65 -0.66 65 16 65 C16 60.05 16 55.1 16 50 C5.11 50 -5.78 50 -17 50 C-17 44.72 -17 39.44 -17 34 C-21.95 34 -26.9 34 -32 34 C-32 38.95 -32 43.9 -32 49 C-32.33 49 -32.66 49 -33 49 C-33 43.72 -33 38.44 -33 33 C-27.39 33 -21.78 33 -16 33 C-16 38.28 -16 43.56 -16 49 C-5.44 49 5.12 49 16 49 C16 44.05 16 39.1 16 34 C10.72 34 5.44 34 0 34 C0 22.78 0 11.56 0 0 Z " fill="#797979" transform="translate(287,372)"/>
<path d="M0 0 C0 1.65 0 3.3 0 5 C5.28 5 10.56 5 16 5 C16 10.28 16 15.56 16 21 C5.44 21 -5.12 21 -16 21 C-16 15.06 -16 9.12 -16 3 C-13.69 2.34 -11.38 1.68 -9 1 C-8.29875 0.79375 -7.5975 0.5875 -6.875 0.375 C-4.55665842 -0.08866832 -2.35759439 -0.06548873 0 0 Z " fill="#020202" transform="translate(287,335)"/>
<path d="M0 0 C5.61 0 11.22 0 17 0 C17 10.89 17 21.78 17 33 C16.67 33 16.34 33 16 33 C16 22.44 16 11.88 16 1 C11.05 1 6.1 1 1 1 C1 11.89 1 22.78 1 34 C-4.28 34 -9.56 34 -15 34 C-15 39.28 -15 44.56 -15 50 C-20.61 50 -26.22 50 -32 50 C-32 54.95 -32 59.9 -32 65 C-26.39 65 -20.78 65 -15 65 C-15 75.89 -15 86.78 -15 98 C-15.33 98 -15.66 98 -16 98 C-16 87.44 -16 76.88 -16 66 C-21.28 66 -26.56 66 -32 66 C-32 82.17 -32 98.34 -32 115 C-37.28 115 -42.56 115 -48 115 C-48 114.67 -48 114.34 -48 114 C-43.05 114 -38.1 114 -33 114 C-33 98.16 -33 82.32 -33 66 C-37.95 66 -42.9 66 -48 66 C-49 65 -49 65 -49.09765625 61.40234375 C-49.09191272 59.91402745 -49.07889891 58.42573704 -49.0625 56.9375 C-49.041875 54.318125 -49.02125 51.69875 -49 49 C-43.72 49 -38.44 49 -33 49 C-33 44.05 -33 39.1 -33 34 C-37.95 34 -42.9 34 -48 34 C-48 33.67 -48 33.34 -48 33 C-42.72 33 -37.44 33 -32 33 C-32 38.28 -32 43.56 -32 49 C-26.72 49 -21.44 49 -16 49 C-16 43.72 -16 38.44 -16 33 C-10.72 33 -5.44 33 0 33 C0 22.11 0 11.22 0 0 Z " fill="#848484" transform="translate(205,372)"/>
<path d="M0 0 C10.89 0 21.78 0 33 0 C33 5.61 33 11.22 33 17 C22.11 17 11.22 17 0 17 C0 11.39 0 5.78 0 0 Z " fill="#111111" transform="translate(26,356)"/>
<path d="M0 0 C10.89 0 21.78 0 33 0 C33 5.61 33 11.22 33 17 C22.11 17 11.22 17 0 17 C0 11.39 0 5.78 0 0 Z " fill="#1E1E1E" transform="translate(59,323)"/>
<path d="M0 0 C5.28 0 10.56 0 16 0 C16 5.61 16 11.22 16 17 C10.72 17 5.44 17 0 17 C0 21.95 0 26.9 0 32 C-5.61 32 -11.22 32 -17 32 C-17 26.72 -17 21.44 -17 16 C-11.39 16 -5.78 16 0 16 C0 10.72 0 5.44 0 0 Z " fill="#121212" transform="translate(43,291)"/>
<path d="M0 0 C5.61 0 11.22 0 17 0 C17 10.56 17 21.12 17 32 C11.39 32 5.78 32 0 32 C0 21.44 0 10.88 0 0 Z " fill="#050505" transform="translate(26,161)"/>
<path d="M0 0 C10.89 0 21.78 0 33 0 C33 5.28 33 10.56 33 16 C22.11 16 11.22 16 0 16 C0 10.72 0 5.44 0 0 Z " fill="#0A0A0A" transform="translate(417,307)"/>
<path d="M0 0 C10.89 0 21.78 0 33 0 C33 5.28 33 10.56 33 16 C22.11 16 11.22 16 0 16 C0 10.72 0 5.44 0 0 Z " fill="#080808" transform="translate(417,210)"/>
<path d="M0 0 C10.56 0 21.12 0 32 0 C32 5.28 32 10.56 32 16 C21.44 16 10.88 16 0 16 C0 10.72 0 5.44 0 0 Z " fill="#020202" transform="translate(222,63)"/>
<path d="M0 0 C26.73 0 53.46 0 81 0 C81 1.65 81 3.3 81 5 C80.12601562 4.7834375 79.25203125 4.566875 78.3515625 4.34375 C59.25544115 0.02009988 39.71312326 0.79919039 22 10 C20.55182269 11.06901816 19.11441848 12.15276666 17.6875 13.25 C12.08158574 17.26286668 6.6759393 16.42163827 0 16 C0 10.72 0 5.44 0 0 Z " fill="#030303" transform="translate(206,193)"/>
<path d="M0 0 C5.28 0 10.56 0 16 0 C16 10.23 16 20.46 16 31 C10.72 31 5.44 31 0 31 C0 20.77 0 10.54 0 0 Z " fill="#000000" transform="translate(320,357)"/>
<path d="M0 0 C4.95 0 9.9 0 15 0 C15 10.23 15 20.46 15 31 C10.05 31 5.1 31 0 31 C0 20.77 0 10.54 0 0 Z " fill="#FEFEFE" transform="translate(337,357)"/>
<path d="M0 0 C5.94 0 11.88 0 18 0 C18 5.28 18 10.56 18 16 C23.28 16 28.56 16 34 16 C34 21.61 34 27.22 34 33 C23.11 33 12.22 33 1 33 C1 38.61 1 44.22 1 50 C-36.62 50 -74.24 50 -113 50 C-113 49.67 -113 49.34 -113 49 C-75.71 49 -38.42 49 0 49 C0 43.72 0 38.44 0 33 C-5.28 33 -10.56 33 -16 33 C-16 27.72 -16 22.44 -16 17 C-26.56 17 -37.12 17 -48 17 C-48 16.67 -48 16.34 -48 16 C-37.11 16 -26.22 16 -15 16 C-15 21.28 -15 26.56 -15 32 C-10.05 32 -5.1 32 0 32 C0 21.44 0 10.88 0 0 Z M1 1 C1 11.23 1 21.46 1 32 C11.56 32 22.12 32 33 32 C33 27.05 33 22.1 33 17 C27.72 17 22.44 17 17 17 C17 11.72 17 6.44 17 1 C11.72 1 6.44 1 1 1 Z " fill="#767676" transform="translate(270,454)"/>
<path d="M0 0 C5.61 0 11.22 0 17 0 C17 5.94 17 11.88 17 18 C11.39 18 5.78 18 0 18 C0 12.06 0 6.12 0 0 Z " fill="#ECECEC" transform="translate(368,339)"/>
<path d="M0 0 C5.61 0 11.22 0 17 0 C17 5.61 17 11.22 17 17 C11.39 17 5.78 17 0 17 C0 11.39 0 5.78 0 0 Z " fill="#F4F4F4" transform="translate(270,95)"/>
<path d="M0 0 C5.28 0 10.56 0 16 0 C16 5.94 16 11.88 16 18 C10.72 18 5.44 18 0 18 C0 12.06 0 6.12 0 0 Z " fill="#131313" transform="translate(385,388)"/>
<path d="M0 0 C5.28 0 10.56 0 16 0 C16 5.28 16 10.56 16 16 C10.72 16 5.44 16 0 16 C0 10.72 0 5.44 0 0 Z " fill="#FDFDFD" transform="translate(320,389)"/>
<path d="M0 0 C5.28 0 10.56 0 16 0 C16 5.28 16 10.56 16 16 C10.72 16 5.44 16 0 16 C0 10.72 0 5.44 0 0 Z " fill="#FDFDFD" transform="translate(124,340)"/>
<path d="M0 0 C5.28 0 10.56 0 16 0 C16 5.28 16 10.56 16 16 C10.72 16 5.44 16 0 16 C0 10.72 0 5.44 0 0 Z " fill="#010101" transform="translate(124,193)"/>
<path d="M0 0 C5.28 0 10.56 0 16 0 C16 5.28 16 10.56 16 16 C10.72 16 5.44 16 0 16 C0 10.72 0 5.44 0 0 Z " fill="#0A0A0A" transform="translate(108,177)"/>
<path d="M0 0 C5.28 0 10.56 0 16 0 C16 5.28 16 10.56 16 16 C10.72 16 5.44 16 0 16 C0 10.72 0 5.44 0 0 Z " fill="#090909" transform="translate(92,161)"/>
<path d="M0 0 C5.28 0 10.56 0 16 0 C16 5.28 16 10.56 16 16 C10.72 16 5.44 16 0 16 C0 10.72 0 5.44 0 0 Z " fill="#090909" transform="translate(352,128)"/>
<path d="M0 0 C5.28 0 10.56 0 16 0 C16 5.28 16 10.56 16 16 C10.72 16 5.44 16 0 16 C0 10.72 0 5.44 0 0 Z " fill="#0B0B0B" transform="translate(190,128)"/>
<path d="M0 0 C5.61 0 11.22 0 17 0 C17 4.95 17 9.9 17 15 C11.39 15 5.78 15 0 15 C0 10.05 0 5.1 0 0 Z " fill="#FCFCFC" transform="translate(466,324)"/>
<path d="M0 0 C5.61 0 11.22 0 17 0 C17 4.95 17 9.9 17 15 C11.39 15 5.78 15 0 15 C0 10.05 0 5.1 0 0 Z " fill="#FAFAFA" transform="translate(75,324)"/>
<path d="M0 0 C5.61 0 11.22 0 17 0 C17 4.95 17 9.9 17 15 C11.39 15 5.78 15 0 15 C0 10.05 0 5.1 0 0 Z " fill="#030303" transform="translate(26,308)"/>
<path d="M0 0 C5.61 0 11.22 0 17 0 C17 4.95 17 9.9 17 15 C11.39 15 5.78 15 0 15 C0 10.05 0 5.1 0 0 Z " fill="#FBFBFB" transform="translate(466,259)"/>
<path d="M0 0 C5.28 0 10.56 0 16 0 C16 4.95 16 9.9 16 15 C10.72 15 5.44 15 0 15 C0 10.05 0 5.1 0 0 Z " fill="#020202" transform="translate(124,357)"/>
<path d="M0 0 C4.95 0 9.9 0 15 0 C15 5.28 15 10.56 15 16 C10.05 16 5.1 16 0 16 C0 10.72 0 5.44 0 0 Z " fill="#010101" transform="translate(141,340)"/>
<path d="M0 0 C5.28 0 10.56 0 16 0 C16 4.95 16 9.9 16 15 C10.72 15 5.44 15 0 15 C0 10.05 0 5.1 0 0 Z " fill="#FDFDFD" transform="translate(124,308)"/>
<path d="M0 0 C5.28 0 10.56 0 16 0 C16 4.95 16 9.9 16 15 C10.72 15 5.44 15 0 15 C0 10.05 0 5.1 0 0 Z " fill="#010101" transform="translate(320,128)"/>
<path d="M0 0 C4.95 0 9.9 0 15 0 C15 5.28 15 10.56 15 16 C10.05 16 5.1 16 0 16 C0 10.72 0 5.44 0 0 Z " fill="#040404" transform="translate(337,112)"/>
<path d="M0 0 C4.95 0 9.9 0 15 0 C15 5.28 15 10.56 15 16 C3.375 16.25 3.375 16.25 0 14 C-0.42153905 9.31248578 -0.1285499 4.71349622 0 0 Z " fill="#010101" transform="translate(304,193)"/>
<path d="M0 0 C4.95 0 9.9 0 15 0 C15 4.95 15 9.9 15 15 C10.05 15 5.1 15 0 15 C0 10.05 0 5.1 0 0 Z " fill="#FDFDFD" transform="translate(304,422)"/>
<path d="M0 0 C4.95 0 9.9 0 15 0 C15 4.95 15 9.9 15 15 C10.05 15 5.1 15 0 15 C0 10.05 0 5.1 0 0 Z " fill="#010101" transform="translate(157,422)"/>
<path d="M0 0 C4.95 0 9.9 0 15 0 C15 4.95 15 9.9 15 15 C10.05 15 5.1 15 0 15 C0 10.05 0 5.1 0 0 Z " fill="#FDFDFD" transform="translate(141,324)"/>
<path d="M0 0 C4.95 0 9.9 0 15 0 C15 4.95 15 9.9 15 15 C10.05 15 5.1 15 0 15 C0 10.05 0 5.1 0 0 Z " fill="#010101" transform="translate(206,161)"/>
<path d="M0 0 C4.95 0 9.9 0 15 0 C15 4.95 15 9.9 15 15 C10.05 15 5.1 15 0 15 C0 10.05 0 5.1 0 0 Z " fill="#010101" transform="translate(288,128)"/>
<path d="M0 0 C0.33 0 0.66 0 1 0 C1 10.89 1 21.78 1 33 C-4.28 33 -9.56 33 -15 33 C-15 37.95 -15 42.9 -15 48 C-10.05 48 -5.1 48 0 48 C0 48.33 0 48.66 0 49 C-4.95 49 -9.9 49 -15 49 C-15 54.28 -15 59.56 -15 65 C-20.28 65 -25.56 65 -31 65 C-31 70.28 -31 75.56 -31 81 C-25.72 81 -20.44 81 -15 81 C-15 86.28 -15 91.56 -15 97 C-10.05 97 -5.1 97 0 97 C0 97.33 0 97.66 0 98 C-5.28 98 -10.56 98 -16 98 C-16 92.72 -16 87.44 -16 82 C-21.28 82 -26.56 82 -32 82 C-32 76.06 -32 70.12 -32 64 C-26.72 64 -21.44 64 -16 64 C-16 59.05 -16 54.1 -16 49 C-25.9 49 -35.8 49 -46 49 C-46 48.67 -46 48.34 -46 48 C-36.1 48 -26.2 48 -16 48 C-16 42.72 -16 37.44 -16 32 C-10.72 32 -5.44 32 0 32 C0 21.44 0 10.88 0 0 Z " fill="#7B7B7B" transform="translate(368,177)"/>
<path d="M0 0 C0.66 0 1.32 0 2 0 C2 10.89 2 21.78 2 33 C-2.29 33 -6.58 33 -11 33 C-10.67 31.35 -10.34 29.7 -10 28 C-9.34 28 -8.68 28 -8 28 C-7.82984375 27.46632813 -7.6596875 26.93265625 -7.484375 26.3828125 C-6.11267022 22.16554992 -4.62542508 18.0758073 -2.875 14 C-0.93924898 9.28622461 -0.32726104 5.07254606 0 0 Z " fill="#0E0E0E" transform="translate(334,274)"/>
<path d="M0 0 C0.33 0 0.66 0 1 0 C1 10.56 1 21.12 1 32 C11.23 32 21.46 32 32 32 C32 26.39 32 20.78 32 15 C37.61 15 43.22 15 49 15 C49 15.33 49 15.66 49 16 C43.72 16 38.44 16 33 16 C33 21.94 33 27.88 33 34 C22.44 34 11.88 34 1 34 C1 49.51 1 65.02 1 81 C0.67 81 0.34 81 0 81 C0 65.16 0 49.32 0 33 C-4.62 33 -9.24 33 -14 33 C-13.67 31.68 -13.34 30.36 -13 29 C-12.67 29.66 -12.34 30.32 -12 31 C-8.04 31.33 -4.08 31.66 0 32 C0 21.44 0 10.88 0 0 Z " fill="#656565" transform="translate(336,275)"/>
<path d="M0 0 C0.33 0 0.66 0 1 0 C1 10.56 1 21.12 1 32 C6.28 32 11.56 32 17 32 C17 37.28 17 42.56 17 48 C21.95 48 26.9 48 32 48 C32 48.33 32 48.66 32 49 C27.05 49 22.1 49 17 49 C17 54.61 17 60.22 17 66 C5.78 66 -5.44 66 -17 66 C-17 55.11 -17 44.22 -17 33 C-16.67 33 -16.34 33 -16 33 C-16 43.56 -16 54.12 -16 65 C-5.44 65 5.12 65 16 65 C16 59.72 16 54.44 16 49 C10.72 49 5.44 49 0 49 C0 32.83 0 16.66 0 0 Z M1 33 C1 37.95 1 42.9 1 48 C5.95 48 10.9 48 16 48 C16 43.05 16 38.1 16 33 C11.05 33 6.1 33 1 33 Z " fill="#8F8F8F" transform="translate(287,95)"/>
<path d="M0 0 C0.75539062 0.0721875 1.51078125 0.144375 2.2890625 0.21875 C13.52862894 1.16634811 24.72868836 1.09951579 36 1 C36 1.33 36 1.66 36 2 C34.02 2.33 32.04 2.66 30 3 C29.67 8.94 29.34 14.88 29 21 C39.56 21 50.12 21 61 21 C61 21.66 61 22.32 61 23 C50.11 23 39.22 23 28 23 C28 17.06 28 11.12 28 5 C23.05 5 18.1 5 13 5 C13 15.56 13 26.12 13 37 C12.67 37 12.34 37 12 37 C12 26.11 12 15.22 12 4 C6.06 2.515 6.06 2.515 0 1 C0 0.67 0 0.34 0 0 Z " fill="#939393" transform="translate(242,335)"/>
<path d="M0 0 C0.33 0 0.66 0 1 0 C1 10.23 1 20.46 1 31 C5.95 31 10.9 31 16 31 C16 31.33 16 31.66 16 32 C11.05 32 6.1 32 1 32 C1 37.61 1 43.22 1 49 C-4.61 49 -10.22 49 -16 49 C-16 52.96 -16 56.92 -16 61 C-16.33 61 -16.66 61 -17 61 C-17 57.04 -17 53.08 -17 49 C-18.35544922 49.03480469 -18.35544922 49.03480469 -19.73828125 49.0703125 C-20.91777344 49.08835938 -22.09726562 49.10640625 -23.3125 49.125 C-24.48425781 49.14820313 -25.65601563 49.17140625 -26.86328125 49.1953125 C-30 49 -30 49 -33 47 C-33.2224948 44.19359893 -33.28088481 41.66883108 -33.1875 38.875 C-33.125625 36.27625 -33.06375 33.6775 -33 31 C-27.72 31 -22.44 31 -17 31 C-17 26.05 -17 21.1 -17 16 C-16.67 16 -16.34 16 -16 16 C-16 20.95 -16 25.9 -16 31 C-10.72 31 -5.44 31 0 31 C0 20.77 0 10.54 0 0 Z M-32 32 C-32.061875 34.26875 -32.12375 36.5375 -32.1875 38.875 C-32.22230469 40.15117187 -32.25710938 41.42734375 -32.29296875 42.7421875 C-32.19628906 43.81726563 -32.09960938 44.89234375 -32 46 C-27.25368713 49.16420858 -22.63243123 48.12112755 -17 48 C-17 42.72 -17 37.44 -17 32 C-21.95 32 -26.9 32 -32 32 Z M-16 32 C-16 37.28 -16 42.56 -16 48 C-10.72 48 -5.44 48 0 48 C0 42.72 0 37.44 0 32 C-5.28 32 -10.56 32 -16 32 Z " fill="#838383" transform="translate(336,161)"/>
<path d="M0 0 C0.33 0 0.66 0 1 0 C1 4.95 1 9.9 1 15 C5.95 15 10.9 15 16 15 C16 15.33 16 15.66 16 16 C11.05 16 6.1 16 1 16 C1 21.28 1 26.56 1 32 C6.28 32 11.56 32 17 32 C17 37.28 17 42.56 17 48 C22.28 48 27.56 48 33 48 C33 48.33 33 48.66 33 49 C27.39 49 21.78 49 16 49 C16 43.72 16 38.44 16 33 C10.72 33 5.44 33 0 33 C0 27.39 0 21.78 0 16 C-15.84 16 -31.68 16 -48 16 C-48 21.28 -48 26.56 -48 32 C-48.33 32 -48.66 32 -49 32 C-49 26.39 -49 20.78 -49 15 C-32.83 15 -16.66 15 0 15 C0 10.05 0 5.1 0 0 Z " fill="#8C8C8C" transform="translate(303,422)"/>
<path d="M0 0 C13.2 0 26.4 0 40 0 C40 1.65 40 3.3 40 5 C38.68902344 4.67515625 38.68902344 4.67515625 37.3515625 4.34375 C30.035094 2.68719109 23.07582362 1.70006671 15.5625 1.6875 C14.83047363 1.68234375 14.09844727 1.6771875 13.34423828 1.671875 C9.61557268 1.71923387 6.31678458 2.09393239 2.71484375 3.08203125 C-0.79417617 3.94913922 -1.76961096 4.01850272 -5 3 C-3.35 2.67 -1.7 2.34 0 2 C0 1.34 0 0.68 0 0 Z " fill="#313131" transform="translate(247,193)"/>
<path d="M0 0 C1.41539062 0.0009668 1.41539062 0.0009668 2.859375 0.00195312 C4.32890625 0.02612305 4.32890625 0.02612305 5.828125 0.05078125 C6.79234375 0.04755859 7.7565625 0.04433594 8.75 0.04101562 C17.59078411 0.10708127 24.88284809 2.14370818 33.078125 5.36328125 C29.38394299 6.59467525 26.8724989 6.00760889 23.078125 5.36328125 C23.078125 4.70328125 23.078125 4.04328125 23.078125 3.36328125 C12.518125 3.36328125 1.958125 3.36328125 -8.921875 3.36328125 C-4.41684229 -0.01549328 -4.41684229 -0.01549328 0 0 Z " fill="#767676" transform="translate(254.921875,204.63671875)"/>
<path d="M0 0 C0.495 0.99 0.495 0.99 1 2 C-0.11503906 1.83757812 -1.23007812 1.67515625 -2.37890625 1.5078125 C-7.24044034 0.90239373 -12.04392085 0.85263787 -16.9375 0.875 C-17.77990234 0.87113281 -18.62230469 0.86726562 -19.49023438 0.86328125 C-25.06741578 0.87186813 -30.46713916 1.29652829 -36 2 C-35 0 -35 0 -33.27734375 -0.6328125 C-22.53683767 -2.89208423 -10.54419872 -3.32974697 0 0 Z " fill="#8F8F8F" transform="translate(281,218)"/>
<path d="M0 0 C0.66 0.33 1.32 0.66 2 1 C-7.22551253 11.74259681 -7.22551253 11.74259681 -13 15 C-11.54175179 11.59742084 -9.68186049 9.52861132 -7 7 C-6.13375 6.13375 -5.2675 5.2675 -4.375 4.375 C-2.1875 2.1875 -2.1875 2.1875 0 0 Z " fill="#444444" transform="translate(226,217)"/>
<path d="M0 0 C0.66 0.33 1.32 0.66 2 1 C-0.73845804 4.3501411 -3.31257334 7.46880667 -6.75 10.125 C-9.28767066 12.23972555 -10.04602023 13.87788439 -11 17 C-11.66 17 -12.32 17 -13 17 C-10.95198064 9.18028971 -6.10608474 4.828067 0 0 Z " fill="#A9A9A9" transform="translate(233,225)"/>
<path d="M0 0 C0.33 0 0.66 0 1 0 C0.48517081 5.852795 -0.45357192 11.3297637 -2 17 C-0.35 17 1.3 17 3 17 C1 19 1 19 -1.625 19.125 C-2.40875 19.08375 -3.1925 19.0425 -4 19 C-2.89309248 12.59406714 -1.66054831 6.28636144 0 0 Z " fill="#8F8F8F" transform="translate(221,293)"/>
<path d="M0 0 C0.98120464 3.05263664 0.98120464 4.94736336 0 8 C2.64 8 5.28 8 8 8 C6 10 6 10 4.0546875 10.1953125 C2.03645833 10.13020833 0.01822917 10.06510417 -2 10 C-1.54177532 6.53058454 -1.10868317 3.32604951 0 0 Z " fill="#9D9D9D" transform="translate(204,317)"/>
<path d="M0 0 C2.97 0 5.94 0 9 0 C9 1.65 9 3.3 9 5 C6.03 4.01 3.06 3.02 0 2 C0 1.34 0 0.68 0 0 Z " fill="#0D0D0D" transform="translate(278,193)"/>
<path d="M0 0 C-2.96178773 1.67110042 -5.37071192 2.32682752 -8.75 2.625 C-9.54921875 2.69976562 -10.3484375 2.77453125 -11.171875 2.8515625 C-11.77515625 2.90054688 -12.3784375 2.94953125 -13 3 C-12 1 -12 1 -10.4375 0.375 C-6.93601819 -0.16368951 -3.54193167 -0.05903219 0 0 Z " fill="#A5A5A5" transform="translate(258,217)"/>
<path d="M0 0 C0.556875 0.226875 1.11375 0.45375 1.6875 0.6875 C-2.26773655 3.44418002 -5.53673661 4.2192879 -10.3125 4.6875 C-9.3225 4.0275 -8.3325 3.3675 -7.3125 2.6875 C-6.508125 2.130625 -5.70375 1.57375 -4.875 1 C-2.3125 -0.3125 -2.3125 -0.3125 0 0 Z " fill="#404040" transform="translate(283.3125,311.3125)"/>
<path d="M0 0 C0.66 0.33 1.32 0.66 2 1 C-1.465 3.97 -1.465 3.97 -5 7 C-5 5.68 -5 4.36 -5 3 C-2.625 1.1875 -2.625 1.1875 0 0 Z " fill="#393939" transform="translate(240,238)"/>
</svg>
